<svg width="231" height="51" viewBox="0 0 231 51" fill="none" xmlns="http://www.w3.org/2000/svg">
<g id="Logo / &#208;&#158;&#208;&#177;&#209;&#139;&#209;&#135;&#208;&#189;&#208;&#190;&#208;&#181;" clip-path="url(#clip0_96_394)">
<g id="Clip path group">
<mask id="mask0_96_394" style="mask-type:luminance" maskUnits="userSpaceOnUse" x="0" y="0" width="231" height="51">
<g id="clip0_1_7">
<path id="Vector" d="M230.5 0H0.5V51H230.5V0Z" fill="white"/>
</g>
</mask>
<g mask="url(#mask0_96_394)">
<g id="Group">
<path id="Vector_2" d="M71.0496 31.1573C71.0284 31.1581 71.0072 31.1534 70.9881 31.1437C70.969 31.134 70.9531 31.1196 70.9409 31.1018L66.147 24.6203H65.3059V30.9999C65.3059 31.0392 65.2906 31.0769 65.2635 31.1047C65.2365 31.1325 65.1994 31.148 65.1612 31.148H61.724C61.6858 31.148 61.6492 31.1325 61.6217 31.1047C61.5947 31.0769 61.5793 31.0392 61.5793 30.9999V15.5647C61.5793 15.5255 61.5947 15.4878 61.6217 15.46C61.6492 15.4322 61.6858 15.4166 61.724 15.4166H65.1522C65.1904 15.4166 65.2275 15.4322 65.2545 15.46C65.2815 15.4878 65.2969 15.5255 65.2969 15.5647V21.5277H65.8936L70.606 15.4721C70.6192 15.4554 70.6357 15.4418 70.6542 15.4321C70.6733 15.4225 70.694 15.4172 70.7146 15.4166H74.993C75.0205 15.4157 75.0481 15.4229 75.0714 15.4374C75.0952 15.4519 75.1148 15.4731 75.127 15.4984C75.1392 15.5237 75.1445 15.5522 75.1413 15.5803C75.1387 15.6085 75.1276 15.6352 75.1106 15.6573L69.4486 22.7592C69.4295 22.7861 69.4189 22.8185 69.4189 22.8518C69.4189 22.885 69.4295 22.9174 69.4486 22.9443L75.436 30.9258C75.454 30.9463 75.4657 30.9717 75.4694 30.999C75.4731 31.0262 75.4688 31.054 75.4572 31.0787C75.4461 31.1035 75.4275 31.1243 75.4042 31.1382C75.3809 31.1522 75.3544 31.1589 75.3273 31.1573H71.0496Z" fill="white"/>
<path id="Vector_3" d="M76.974 35.4352V19.5001C76.9734 19.4623 76.9877 19.426 77.0126 19.3985C77.0381 19.3709 77.0725 19.3543 77.1096 19.3519H80.4648C80.5019 19.3543 80.5363 19.3709 80.5617 19.3985C80.5867 19.426 80.601 19.4623 80.6004 19.5001V21.3519H80.7181C80.8834 20.9938 81.0997 20.663 81.3604 20.3704C81.655 20.0234 82.0191 19.7455 82.4277 19.5556C82.9169 19.3324 83.4484 19.2248 83.9837 19.2408C84.7744 19.2388 85.5502 19.4599 86.2264 19.8797C86.9705 20.3599 87.5614 21.0517 87.927 21.8704C88.3897 22.9486 88.6091 24.1195 88.5693 25.2964C88.6038 26.4491 88.3939 27.5958 87.9541 28.6575C87.6017 29.4861 87.0198 30.1911 86.281 30.6853C85.5862 31.1365 84.7786 31.3714 83.9561 31.3612C83.4415 31.376 82.9296 31.2781 82.4547 31.0742C82.0499 30.8936 81.6842 30.6324 81.3784 30.3056C81.1055 30.0021 80.8824 29.6549 80.7181 29.2778H80.646V35.4723C80.646 35.5116 80.6306 35.5493 80.6036 35.5771C80.5766 35.6048 80.5395 35.6205 80.5013 35.6205H77.1096C77.0879 35.6198 77.0662 35.6141 77.0471 35.6039C77.028 35.5936 77.0111 35.5791 76.9978 35.5612C76.9851 35.5435 76.9761 35.5229 76.9718 35.5011C76.9676 35.4793 76.9681 35.4568 76.974 35.4352ZM80.5914 25.2501C80.5798 25.8135 80.6651 26.3747 80.8447 26.9075C80.9831 27.3354 81.2374 27.7142 81.5777 28.0001C81.9084 28.2519 82.3095 28.3879 82.7218 28.3879C83.1341 28.3879 83.5353 28.2519 83.866 28.0001C84.2004 27.7128 84.4484 27.3338 84.5804 26.9075C84.9058 25.8277 84.9058 24.6725 84.5804 23.5927C84.4463 23.1725 84.202 22.7979 83.875 22.5093C83.5433 22.2499 83.1341 22.1158 82.7171 22.1297C82.3042 22.1152 81.8988 22.2459 81.5687 22.5001C81.2343 22.7821 80.9836 23.1541 80.8447 23.5741C80.6534 24.1142 80.5586 24.6849 80.5644 25.2594L80.5914 25.2501Z" fill="white"/>
<path id="Vector_4" d="M101.359 26.1668V25.2409C101.373 24.3649 101.235 23.4934 100.952 22.6668C100.699 21.9584 100.305 21.3119 99.7938 20.7686C99.2813 20.2511 98.6639 19.8558 97.985 19.6112C97.2627 19.3458 96.5001 19.2142 95.7327 19.2223C94.6744 19.1938 93.6283 19.456 92.7025 19.9816C91.854 20.4862 91.1635 21.2282 90.713 22.1205C90.2403 23.1108 90.0108 24.2041 90.0437 25.3057C90.0145 26.4288 90.2573 27.542 90.7491 28.5464C91.2 29.4352 91.8991 30.1667 92.757 30.6483C93.72 31.1582 94.7937 31.4099 95.8774 31.3798C96.7852 31.3974 97.6877 31.2371 98.5367 30.9075C99.2373 30.6222 99.859 30.1642 100.345 29.5742C100.796 29.0458 101.108 28.4083 101.25 27.7223C101.255 27.7008 101.256 27.6783 101.252 27.6565C101.247 27.6347 101.238 27.6141 101.226 27.5963C101.212 27.5785 101.196 27.564 101.176 27.5537C101.157 27.5435 101.136 27.5378 101.114 27.5371L97.9124 27.4445C97.8261 27.6963 97.6798 27.9222 97.4874 28.102C97.2929 28.2871 97.0613 28.4262 96.8091 28.5094C96.5171 28.6069 96.2113 28.6538 95.9044 28.6483C95.4794 28.658 95.0592 28.5559 94.6834 28.352C94.3501 28.1511 94.0777 27.8594 93.8964 27.5093C93.7062 27.1152 93.6103 26.6805 93.6161 26.2408V26.1482L101.359 26.1668ZM94.7465 22.2223C95.0851 22.0343 95.4651 21.9386 95.8504 21.9445C96.2245 21.9348 96.5955 22.0241 96.9267 22.2038C97.2336 22.375 97.4895 22.6277 97.6681 22.9353C97.8504 23.2626 97.9474 23.6326 97.9485 24.0093H93.6611C93.6744 23.6464 93.7772 23.2928 93.96 22.9816C94.1498 22.6599 94.4216 22.3974 94.7465 22.2223Z" fill="white"/>
<path id="Vector_5" d="M102.589 34.6391C102.552 34.6367 102.517 34.6201 102.492 34.5926C102.467 34.565 102.453 34.5287 102.453 34.4909V28.2594H103.357C103.651 28.0914 103.874 27.8175 103.981 27.491C104.151 27.0548 104.275 26.6017 104.352 26.1391C104.443 25.6298 104.515 25.0928 104.56 24.528C104.606 23.9631 104.651 23.4354 104.696 22.9447L104.958 19.4909C104.958 19.4727 104.962 19.4546 104.969 19.4378C104.976 19.4209 104.985 19.4056 104.998 19.3927C105.011 19.3798 105.025 19.3696 105.042 19.3626C105.058 19.3556 105.076 19.3521 105.094 19.3521H114.139C114.177 19.3521 114.214 19.3677 114.241 19.3954C114.268 19.4232 114.283 19.4609 114.283 19.5002V28.1113C114.283 28.1506 114.299 28.1883 114.326 28.2161C114.353 28.2438 114.39 28.2594 114.428 28.2594H115.948C115.984 28.2618 116.019 28.2784 116.044 28.306C116.07 28.3335 116.083 28.3699 116.083 28.4076V34.4909C116.083 34.5287 116.07 34.565 116.044 34.5926C116.019 34.6201 115.984 34.6367 115.948 34.6391H112.746C112.708 34.6391 112.671 34.6235 112.644 34.5957C112.617 34.5679 112.601 34.5302 112.601 34.4909V31.3058C112.601 31.2665 112.586 31.2288 112.559 31.201C112.532 31.1732 112.495 31.1576 112.456 31.1576H106.188C106.152 31.1599 106.117 31.1766 106.092 31.2041C106.067 31.2317 106.053 31.268 106.053 31.3058V34.4909C106.053 34.5302 106.038 34.5679 106.01 34.5957C105.983 34.6235 105.947 34.6391 105.908 34.6391H102.589ZM107.111 28.2594H110.729C110.768 28.2594 110.804 28.2438 110.831 28.2161C110.858 28.1883 110.874 28.1506 110.874 28.1113V22.2965C110.874 22.2572 110.858 22.2195 110.831 22.1917C110.804 22.1639 110.768 22.1484 110.729 22.1484H108.015L107.961 22.9447C107.912 24.0153 107.8 25.082 107.626 26.1391C107.529 26.8065 107.328 27.4537 107.03 28.0558C107.019 28.0748 107.013 28.096 107.012 28.1178C107.012 28.1395 107.015 28.1612 107.024 28.181C107.033 28.2008 107.047 28.2183 107.063 28.2319C107.08 28.2455 107.099 28.2549 107.12 28.2594H107.111Z" fill="white"/>
<path id="Vector_6" d="M121.384 25.9909L124.866 19.4447C124.879 19.4219 124.897 19.4031 124.919 19.3901C124.942 19.3771 124.967 19.3703 124.993 19.3706H128.294C128.332 19.3706 128.369 19.3861 128.396 19.4139C128.423 19.4418 128.439 19.4794 128.439 19.5187V31.0095C128.439 31.0487 128.423 31.0864 128.396 31.1142C128.369 31.142 128.332 31.1576 128.294 31.1576H125.101C125.064 31.1552 125.03 31.1386 125.005 31.111C124.979 31.0836 124.966 31.0472 124.966 31.0095V24.528C124.963 24.5073 124.955 24.4879 124.941 24.4722C124.928 24.4566 124.91 24.4456 124.891 24.4405C124.871 24.4355 124.85 24.4367 124.831 24.4441C124.812 24.4514 124.796 24.4646 124.784 24.4817L121.321 31.0372C121.308 31.0606 121.29 31.08 121.268 31.0932C121.245 31.1063 121.219 31.1126 121.194 31.1113H117.892C117.854 31.1113 117.817 31.0957 117.79 31.0679C117.763 31.0401 117.748 31.0024 117.748 30.9631V19.5002C117.748 19.4609 117.763 19.4232 117.79 19.3954C117.817 19.3677 117.854 19.3521 117.892 19.3521H121.076C121.114 19.3521 121.151 19.3677 121.178 19.3954C121.206 19.4232 121.221 19.4609 121.221 19.5002V25.9817C121.227 25.9978 121.238 26.0117 121.252 26.0218C121.266 26.0319 121.282 26.0377 121.299 26.0387C121.316 26.0397 121.333 26.0357 121.348 26.0273C121.363 26.0188 121.376 26.0062 121.384 25.9909Z" fill="white"/>
<path id="Vector_7" d="M130.175 22.0835V19.5002C130.175 19.4609 130.19 19.4232 130.217 19.3954C130.245 19.3677 130.281 19.3521 130.32 19.3521H140.848C140.886 19.3521 140.923 19.3677 140.95 19.3954C140.978 19.4232 140.993 19.4609 140.993 19.5002V22.0835C140.993 22.1228 140.978 22.1605 140.95 22.1883C140.923 22.216 140.886 22.2317 140.848 22.2317H137.447C137.41 22.2316 137.375 22.246 137.348 22.2717C137.321 22.2975 137.305 22.3329 137.302 22.3706V31.0095C137.302 31.0487 137.287 31.0864 137.26 31.1142C137.233 31.142 137.196 31.1576 137.158 31.1576H133.965C133.926 31.1576 133.89 31.142 133.862 31.1142C133.835 31.0864 133.82 31.0487 133.82 31.0095V22.3706C133.818 22.3329 133.801 22.2975 133.775 22.2717C133.748 22.246 133.712 22.2316 133.675 22.2317H130.32C130.301 22.2317 130.282 22.2279 130.264 22.2204C130.247 22.2129 130.231 22.202 130.217 22.1883C130.204 22.1745 130.193 22.1582 130.186 22.1402C130.179 22.1223 130.175 22.103 130.175 22.0835Z" fill="white"/>
<path id="Vector_8" d="M155.275 15.5647V31.0091C155.275 31.0484 155.259 31.0861 155.232 31.1139C155.205 31.1416 155.168 31.1573 155.13 31.1573H153.104C153.065 31.1573 153.029 31.1416 153.001 31.1139C152.974 31.0861 152.959 31.0484 152.959 31.0091V17.5924C152.959 17.5531 152.944 17.5154 152.917 17.4877C152.889 17.4599 152.853 17.4443 152.814 17.4443H145.868C145.829 17.4443 145.793 17.4599 145.766 17.4877C145.739 17.5154 145.723 17.5531 145.723 17.5924V31.0091C145.723 31.0484 145.708 31.0861 145.681 31.1139C145.654 31.1416 145.617 31.1573 145.579 31.1573H143.553C143.515 31.1549 143.481 31.1382 143.456 31.1107C143.431 31.0832 143.417 31.0468 143.417 31.0091V15.5647C143.417 15.5269 143.431 15.4906 143.456 15.463C143.481 15.4355 143.515 15.4189 143.553 15.4165H155.166C155.198 15.4249 155.226 15.4442 155.245 15.4711C155.265 15.498 155.276 15.531 155.275 15.5647Z" fill="#F48432"/>
<path id="Vector_9" d="M161.995 31.4167C161.313 31.4273 160.637 31.2851 160.014 31C159.441 30.7406 158.954 30.3159 158.612 29.7778C158.254 29.1936 158.074 28.5134 158.097 27.8241C158.077 27.2509 158.204 26.6824 158.467 26.1759C158.715 25.7508 159.068 25.3997 159.489 25.1574C159.933 24.896 160.411 24.7025 160.91 24.5834C161.441 24.4592 161.978 24.3634 162.519 24.2963L164.211 24.0741C164.526 24.045 164.833 23.9539 165.115 23.8056C165.214 23.743 165.294 23.6537 165.347 23.5476C165.4 23.4414 165.423 23.3224 165.414 23.2037C165.432 22.9181 165.392 22.6317 165.297 22.3625C165.202 22.0933 165.054 21.8469 164.862 21.6389C164.637 21.44 164.376 21.2886 164.093 21.1932C163.811 21.0979 163.512 21.0605 163.216 21.0834C162.573 21.0426 161.936 21.2253 161.407 21.6018C161.045 21.8678 160.753 22.2208 160.557 22.6296C160.543 22.6581 160.521 22.6809 160.493 22.6944C160.464 22.7078 160.433 22.7111 160.403 22.7037L158.594 22.2778C158.573 22.2728 158.554 22.2633 158.537 22.2498C158.521 22.2363 158.507 22.2193 158.497 22.1998C158.488 22.1803 158.483 22.159 158.482 22.1373C158.482 22.1155 158.486 22.094 158.495 22.0741C158.712 21.4713 159.069 20.9313 159.534 20.5C160.013 20.0551 160.581 19.7232 161.199 19.5278C161.845 19.3297 162.515 19.2299 163.188 19.2315C163.681 19.2363 164.172 19.289 164.654 19.3889C165.172 19.4987 165.666 19.7059 166.11 20C166.582 20.3074 166.969 20.7349 167.231 21.2408C167.545 21.8935 167.694 22.6159 167.666 23.3426V31.0371C167.666 31.0763 167.651 31.114 167.624 31.1418C167.596 31.1696 167.56 31.1852 167.521 31.1852H165.612C165.574 31.1852 165.538 31.1696 165.51 31.1418C165.483 31.114 165.468 31.0763 165.468 31.0371V29.5463H165.387C165.212 29.8701 164.99 30.1638 164.726 30.4167C164.403 30.7263 164.025 30.9712 163.614 31.1389C163.096 31.3331 162.547 31.4272 161.995 31.4167ZM162.483 29.5648C163.037 29.5789 163.585 29.4482 164.075 29.1852C164.503 28.9654 164.863 28.629 165.115 28.2129C165.348 27.8158 165.47 27.3612 165.468 26.8982V25.3796C165.334 25.4899 165.175 25.566 165.007 25.6018C164.752 25.6795 164.492 25.7383 164.229 25.7778L163.379 25.9167L162.691 26.0093C162.283 26.0558 161.883 26.1522 161.497 26.2963C161.154 26.3988 160.843 26.5902 160.593 26.8518C160.373 27.132 160.261 27.484 160.276 27.8426C160.263 28.0931 160.312 28.3431 160.419 28.5685C160.527 28.7939 160.69 28.9871 160.891 29.1297C161.364 29.4433 161.92 29.5987 162.483 29.5741V29.5648Z" fill="#F48432"/>
<path id="Vector_10" d="M170.669 35.435V19.4998C170.669 19.4605 170.684 19.4228 170.711 19.395C170.738 19.3672 170.775 19.3516 170.813 19.3516H172.722C172.76 19.3516 172.797 19.3672 172.824 19.395C172.851 19.4228 172.866 19.4605 172.866 19.4998V21.2961H173.048C173.214 20.9963 173.404 20.7113 173.617 20.4442C173.893 20.0906 174.238 19.8004 174.63 19.5924C175.168 19.328 175.762 19.204 176.358 19.2312C177.241 19.2173 178.109 19.4684 178.854 19.9535C179.611 20.4647 180.207 21.1879 180.573 22.0368C181.022 23.0634 181.239 24.1809 181.206 25.3053C181.236 26.4316 181.022 27.5507 180.582 28.5831C180.214 29.4355 179.618 30.1641 178.863 30.685C178.128 31.178 177.264 31.4329 176.385 31.4164C175.792 31.4422 175.202 31.3182 174.667 31.0553C174.269 30.8475 173.915 30.5611 173.626 30.2127C173.411 29.9425 173.217 29.6545 173.048 29.3516H172.912V35.4627C172.912 35.502 172.897 35.5397 172.87 35.5675C172.842 35.5953 172.806 35.6109 172.767 35.6109H170.813C170.792 35.6113 170.771 35.6067 170.751 35.5976C170.731 35.5885 170.714 35.575 170.7 35.5582C170.686 35.5414 170.676 35.5215 170.671 35.5002C170.666 35.4789 170.665 35.4566 170.669 35.435ZM172.866 25.2498C172.852 25.9912 172.972 26.7288 173.219 27.4257C173.418 28.0025 173.772 28.5099 174.241 28.8886C174.713 29.2489 175.29 29.4349 175.879 29.4164C176.484 29.4357 177.077 29.243 177.561 28.8701C178.032 28.4785 178.387 27.9586 178.583 27.3701C178.827 26.6915 178.946 25.9727 178.936 25.2498C178.945 24.5338 178.828 23.8219 178.592 23.1479C178.395 22.5701 178.04 22.0623 177.57 21.685C177.079 21.3386 176.497 21.153 175.901 21.153C175.305 21.153 174.723 21.3386 174.232 21.685C173.778 22.0679 173.439 22.5753 173.255 23.1479C173.005 23.8227 172.874 24.5374 172.866 25.2591V25.2498Z" fill="#F48432"/>
<path id="Vector_11" d="M183.069 21.1947V19.5002C183.069 19.4609 183.084 19.4232 183.111 19.3954C183.139 19.3677 183.176 19.3521 183.214 19.3521H192.656C192.695 19.3521 192.732 19.3677 192.759 19.3954C192.786 19.4232 192.801 19.4609 192.801 19.5002V21.1947C192.799 21.2323 192.783 21.2677 192.756 21.2934C192.729 21.3193 192.694 21.3336 192.656 21.3335H189.183C189.145 21.3335 189.108 21.3491 189.081 21.3769C189.054 21.4047 189.038 21.4424 189.038 21.4816V31.0095C189.038 31.0487 189.024 31.0864 188.996 31.1142C188.969 31.142 188.933 31.1576 188.894 31.1576H186.994C186.956 31.1576 186.919 31.142 186.892 31.1142C186.865 31.0864 186.85 31.0487 186.85 31.0095V21.4816C186.85 21.4424 186.834 21.4047 186.807 21.3769C186.78 21.3491 186.743 21.3335 186.705 21.3335H183.205C183.169 21.3313 183.136 21.316 183.111 21.2904C183.086 21.2648 183.071 21.2307 183.069 21.1947Z" fill="#F48432"/>
<path id="Vector_12" d="M204.415 19.3521H202.506C202.468 19.3521 202.431 19.3677 202.404 19.3954C202.377 19.4232 202.362 19.4609 202.362 19.5002V24.2687H197.369V19.5002C197.369 19.4609 197.354 19.4232 197.326 19.3954C197.299 19.3677 197.262 19.3521 197.224 19.3521H195.316C195.277 19.3521 195.241 19.3677 195.214 19.3954C195.187 19.4232 195.171 19.4609 195.171 19.5002V31.0095C195.171 31.0487 195.187 31.0864 195.214 31.1142C195.241 31.142 195.277 31.1576 195.316 31.1576H197.224C197.262 31.1576 197.299 31.142 197.326 31.1142C197.354 31.0864 197.369 31.0487 197.369 31.0095V26.2502H202.362V31.0095C202.362 31.0487 202.377 31.0864 202.404 31.1142C202.431 31.142 202.468 31.1576 202.506 31.1576H204.415C204.453 31.1576 204.49 31.142 204.517 31.1142C204.544 31.0864 204.56 31.0487 204.56 31.0095V19.5002C204.56 19.4609 204.544 19.4232 204.517 19.3954C204.49 19.3677 204.453 19.3521 204.415 19.3521Z" fill="#F48432"/>
<path id="Vector_13" d="M217.466 25.1294C217.49 24.2007 217.349 23.2753 217.05 22.3979C216.807 21.7008 216.414 21.0681 215.902 20.5461C215.43 20.0866 214.869 19.7333 214.255 19.5091C213.649 19.2908 213.009 19.1812 212.365 19.185C211.378 19.162 210.405 19.4286 209.562 19.9535C208.752 20.4802 208.106 21.2317 207.698 22.1201C207.236 23.1175 207.007 24.2111 207.029 25.3146C207.006 26.4212 207.235 27.518 207.698 28.5183C208.115 29.3947 208.772 30.1282 209.589 30.6294C210.48 31.1487 211.494 31.4081 212.519 31.3794C213.287 31.3895 214.051 31.2546 214.771 30.9813C215.391 30.7407 215.951 30.361 216.408 29.8702C216.822 29.4438 217.132 28.9235 217.313 28.3517C217.318 28.3309 217.319 28.3093 217.316 28.2882C217.313 28.267 217.306 28.2467 217.295 28.2285C217.284 28.2103 217.269 28.1946 217.252 28.1823C217.235 28.1701 217.216 28.1615 217.195 28.1572L215.386 27.8146C215.354 27.8102 215.322 27.817 215.294 27.8338C215.266 27.8506 215.244 27.8764 215.233 27.9072C215.105 28.2124 214.921 28.4892 214.69 28.722C214.436 28.9799 214.126 29.1732 213.785 29.2868C213.414 29.4209 213.022 29.4867 212.627 29.4813C212.027 29.495 211.434 29.3448 210.909 29.0461C210.379 28.7665 209.948 28.3225 209.679 27.7776C209.418 27.1965 209.283 26.565 209.281 25.9257H217.421L217.466 25.1294ZM215.115 24.2035H209.29C209.314 23.7078 209.437 23.2224 209.652 22.7776C209.9 22.2804 210.271 21.8589 210.728 21.5553C211.219 21.2349 211.792 21.0707 212.374 21.0831C212.892 21.0657 213.405 21.1981 213.853 21.465C214.3 21.732 214.666 22.1227 214.907 22.5924C215.127 23.045 215.251 23.5406 215.269 24.0461C215.27 24.068 215.267 24.0899 215.26 24.1106C215.253 24.1313 215.242 24.1504 215.227 24.1667C215.213 24.1831 215.196 24.1963 215.176 24.2058C215.157 24.2153 215.136 24.2208 215.115 24.222V24.2035Z" fill="#F48432"/>
<path id="Vector_14" d="M219.963 35.435V19.4998C219.963 19.4605 219.978 19.4228 220.005 19.395C220.032 19.3672 220.069 19.3516 220.108 19.3516H222.016C222.054 19.3516 222.091 19.3672 222.118 19.395C222.145 19.4228 222.161 19.4605 222.161 19.4998V21.2961H222.351C222.514 20.9962 222.701 20.7112 222.912 20.4442C223.19 20.0904 223.539 19.8002 223.933 19.5924C224.471 19.328 225.065 19.204 225.661 19.2312C226.541 19.2191 227.406 19.4701 228.149 19.9535C228.905 20.4668 229.504 21.1892 229.876 22.0368C230.318 23.0656 230.531 24.182 230.5 25.3053C230.53 26.4316 230.317 27.5507 229.876 28.5831C229.508 29.433 228.917 30.161 228.167 30.685C227.428 31.1782 226.561 31.4331 225.679 31.4164C225.086 31.44 224.497 31.3161 223.96 31.0553C223.563 30.8475 223.209 30.5611 222.921 30.2127C222.707 29.9426 222.517 29.6546 222.351 29.3516H222.215V35.4627C222.215 35.502 222.2 35.5397 222.173 35.5675C222.145 35.5953 222.109 35.6109 222.07 35.6109H220.108C220.086 35.6113 220.065 35.6067 220.045 35.5976C220.025 35.5885 220.008 35.575 219.994 35.5582C219.98 35.5414 219.97 35.5215 219.965 35.5002C219.96 35.4789 219.959 35.4566 219.963 35.435ZM222.17 25.2498C222.155 25.9912 222.275 26.7288 222.523 27.4257C222.718 28.0045 223.073 28.5128 223.544 28.8886C224.013 29.2489 224.587 29.435 225.172 29.4164C225.778 29.4388 226.373 29.2457 226.855 28.8701C227.327 28.4767 227.684 27.9577 227.886 27.3701C228.122 26.6897 228.239 25.9718 228.23 25.2498C228.242 24.5343 228.128 23.8225 227.895 23.1479C227.695 22.5718 227.341 22.0648 226.873 21.685C226.381 21.3377 225.797 21.1518 225.2 21.1518C224.602 21.1518 224.019 21.3377 223.526 21.685C223.058 22.0622 222.706 22.5703 222.514 23.1479C222.275 23.8245 222.158 24.5398 222.17 25.2591V25.2498Z" fill="#F48432"/>
<path id="Vector_15" d="M49.3871 47.7038L33.3597 26.2964L29.9498 31.2223C28.4032 33.2871 25.4274 34.0742 23.4014 34.1112L9.27342 34.4538H8.77595H8.65836C6.84544 34.5838 5.12844 35.3366 3.78561 36.5903C2.44278 37.844 1.55276 39.525 1.25974 41.3612C1.25974 41.5279 1.20547 41.6853 1.18738 41.8427V41.9168C1.18738 42.0557 1.18738 42.1853 1.18738 42.3242V42.7131V43.3427C1.20712 43.8797 1.27984 44.4132 1.40445 44.9353V45.0371V45.1297C1.86892 46.7558 2.81749 48.193 4.11789 49.2409C4.21437 49.3019 4.31401 49.3575 4.41637 49.4075C5.76629 50.4129 7.3871 50.9661 9.05635 50.9909H48.0394C48.3935 50.9854 48.7381 50.8737 49.0308 50.6696C49.3234 50.4655 49.551 50.178 49.6855 49.8427C49.8456 49.4954 49.9027 49.1076 49.8497 48.7274C49.7966 48.3472 49.6358 47.9914 49.3871 47.7038Z" fill="#F48432"/>
<path id="Vector_16" d="M0.5 38.2499C1.15673 36.897 2.10835 35.7166 3.28139 34.8C4.45443 33.8833 5.81756 33.2547 7.2655 32.9629C7.47356 32.9166 7.68156 32.8796 7.89863 32.8518C8.44205 32.7532 8.99288 32.7036 9.54478 32.7037H10.0694L23.3833 32.4073C25.1923 32.4073 27.5077 31.6759 28.6022 30.2222L32.6995 24.2962L32.817 24.1295L32.9075 24L33.3235 23.4073L48.0665 3.18513C48.2795 2.87956 48.405 2.51926 48.429 2.14469C48.453 1.77013 48.3744 1.39615 48.2022 1.06476C48.0512 0.750505 47.8185 0.484907 47.5297 0.297079C47.2409 0.109252 46.9072 0.0064483 46.5651 -6.05455e-05H4.0546C3.19845 -0.0730237 2.34824 0.198545 1.68453 0.756974C1.02082 1.3154 0.595895 2.11669 0.5 2.99068C0.5 4.69438 0.5 5.69439 0.5 5.70363V38.2499Z" fill="white"/>
</g>
</g>
</g>
</g>
<defs>
<clipPath id="clip0_96_394">
<rect width="230" height="51" fill="white" transform="translate(0.5)"/>
</clipPath>
</defs>
</svg>
