<svg width="40" height="40" viewBox="0 0 40 40" fill="none" xmlns="http://www.w3.org/2000/svg">
<path fill-rule="evenodd" clip-rule="evenodd" d="M24.393 21.893C24.7835 21.5025 25.4167 21.5025 25.8072 21.893L34.0572 30.143C34.4477 30.5335 34.4477 31.1667 34.0572 31.5572C33.6667 31.9478 33.0335 31.9477 32.643 31.5572L24.393 23.3072C24.0025 22.9167 24.0025 22.2835 24.393 21.893Z" fill="#7CC049"/>
<path fill-rule="evenodd" clip-rule="evenodd" d="M23.2093 5.64036C22.2998 4.73088 20.8163 4.73088 19.9069 5.64036L8.12351 17.4237C7.21404 18.3332 7.21404 19.8167 8.12351 20.7261L15.1902 27.7928C16.0997 28.7023 17.5832 28.7023 18.4926 27.7928L30.276 16.0095C31.1854 15.1 31.1854 13.6165 30.276 12.7071L23.2093 5.64036ZM18.4926 4.22615C20.1832 2.53562 22.933 2.53562 24.6235 4.22615L31.6902 11.2928C33.3807 12.9834 33.3807 15.7332 31.6902 17.4237L19.9069 29.207C18.2163 30.8976 15.4665 30.8976 13.776 29.207L6.7093 22.1403C5.01878 20.4498 5.01878 17.7 6.7093 16.0095L18.4926 4.22615Z" fill="#7CC049"/>
<path fill-rule="evenodd" clip-rule="evenodd" d="M2.3335 35C2.3335 34.4477 2.78121 34 3.3335 34H13.3335C13.8858 34 14.3335 34.4477 14.3335 35C14.3335 35.5523 13.8858 36 13.3335 36H3.3335C2.78121 36 2.3335 35.5523 2.3335 35Z" fill="#7CC049"/>
<path fill-rule="evenodd" clip-rule="evenodd" d="M10.226 12.4928C10.6165 12.1023 11.2497 12.1023 11.6402 12.4928L23.4236 24.2761C23.8141 24.6667 23.8141 25.2998 23.4236 25.6904C23.033 26.0809 22.3999 26.0809 22.0093 25.6904L10.226 13.9071C9.83548 13.5165 9.83547 12.8834 10.226 12.4928Z" fill="#7CC049"/>
</svg>
