<svg width="40" height="40" viewBox="0 0 40 40" fill="none" xmlns="http://www.w3.org/2000/svg">
<path fill-rule="evenodd" clip-rule="evenodd" d="M19.9998 4.33325C15.9497 4.33325 12.6665 7.6165 12.6665 11.6666C12.6665 15.7167 15.9497 18.9999 19.9998 18.9999C24.0499 18.9999 27.3332 15.7167 27.3332 11.6666C27.3332 7.6165 24.0499 4.33325 19.9998 4.33325ZM10.6665 11.6666C10.6665 6.51193 14.8452 2.33325 19.9998 2.33325C25.1545 2.33325 29.3332 6.51193 29.3332 11.6666C29.3332 16.8212 25.1545 20.9999 19.9998 20.9999C14.8452 20.9999 10.6665 16.8212 10.6665 11.6666Z" fill="#7CC049"/>
<path fill-rule="evenodd" clip-rule="evenodd" d="M19.9998 26C12.4503 26 6.68311 30.9511 6.68311 36.6667C6.68311 37.219 6.23539 37.6667 5.68311 37.6667C5.13082 37.6667 4.68311 37.219 4.68311 36.6667C4.68311 29.4822 11.7493 24 19.9998 24C21.6898 24 23.3292 24.2288 24.8657 24.6527C25.3981 24.7995 25.7106 25.3502 25.5638 25.8826C25.4169 26.415 24.8663 26.7275 24.3339 26.5807C22.9704 26.2045 21.5098 26 19.9998 26Z" fill="#7CC049"/>
<path fill-rule="evenodd" clip-rule="evenodd" d="M30.0002 24.3333C28.6715 24.3333 27.4389 24.7991 26.4568 25.5819L26.4551 25.5833L26.4551 25.5833C25.1548 26.615 24.3335 28.2126 24.3335 29.9999C24.3335 31.0624 24.6308 32.0643 25.1513 32.9084L25.1597 32.922L25.1596 32.922C26.136 34.5635 27.9323 35.6666 30.0002 35.6666C31.4338 35.6666 32.7295 35.1432 33.7145 34.2566C33.7232 34.2488 33.732 34.2412 33.7409 34.2337C34.1682 33.8754 34.5437 33.4311 34.8364 32.9294L34.8488 32.9082L34.849 32.9084C35.3695 32.0643 35.6668 31.0624 35.6668 29.9999C35.6668 26.8689 33.1312 24.3333 30.0002 24.3333ZM25.2102 24.018C26.5281 22.9675 28.1955 22.3333 30.0002 22.3333C34.2358 22.3333 37.6668 25.7643 37.6668 29.9999C37.6668 31.4331 37.2666 32.794 36.5578 33.9477C36.1544 34.6365 35.6369 35.2512 35.0395 35.7548C33.6929 36.9612 31.9271 37.6666 30.0002 37.6666C27.2042 37.6666 24.7693 36.1727 23.4448 33.9513C22.7345 32.7968 22.3335 31.4346 22.3335 29.9999C22.3335 27.5872 23.4455 25.4182 25.2119 24.0166L25.8335 24.7999L25.2102 24.018Z" fill="#7CC049"/>
<path fill-rule="evenodd" clip-rule="evenodd" d="M33.3345 27.6877C33.7095 28.0932 33.6848 28.7259 33.2794 29.1009L29.7294 32.3841C29.335 32.7488 28.7231 32.7369 28.3433 32.3571L26.6933 30.7071C26.3028 30.3166 26.3028 29.6834 26.6933 29.2929C27.0838 28.9024 27.717 28.9024 28.1075 29.2929L29.0774 30.2628L31.9214 27.6326C32.3269 27.2576 32.9595 27.2823 33.3345 27.6877Z" fill="#7CC049"/>
</svg>
