<svg width="40" height="40" viewBox="0 0 40 40" fill="none" xmlns="http://www.w3.org/2000/svg">
<path fill-rule="evenodd" clip-rule="evenodd" d="M13 15C13.5523 15 14 15.4477 14 16V23C14 23.5523 13.5523 24 13 24C12.4477 24 12 23.5523 12 23V16C12 15.4477 12.4477 15 13 15Z" fill="#F48432"/>
<path fill-rule="evenodd" clip-rule="evenodd" d="M13.25 24.5C12.0074 24.5 11 25.5073 11 26.75C11 27.9926 12.0074 29 13.25 29C14.4927 29 15.5 27.9926 15.5 26.75C15.5 25.5073 14.4927 24.5 13.25 24.5ZM9 26.75C9 24.4027 10.9028 22.5 13.25 22.5C15.5972 22.5 17.5 24.4027 17.5 26.75C17.5 29.0972 15.5972 31 13.25 31C10.9028 31 9 29.0972 9 26.75Z" fill="#F48432"/>
<path fill-rule="evenodd" clip-rule="evenodd" d="M13 11C11.8954 11 11 11.8954 11 13C11 14.1046 11.8954 15 13 15C14.1045 15 15 14.1046 15 13C15 11.8954 14.1045 11 13 11ZM9 13C9 10.7908 10.7908 9 13 9C15.2091 9 17 10.7908 17 13C17 15.2091 15.2091 17 13 17C10.7908 17 9 15.2091 9 13Z" fill="#F48432"/>
<path fill-rule="evenodd" clip-rule="evenodd" d="M27 11C25.8954 11 25 11.8954 25 13C25 14.1046 25.8954 15 27 15C28.1045 15 29 14.1046 29 13C29 11.8954 28.1045 11 27 11ZM23 13C23 10.7908 24.7908 9 27 9C29.2091 9 31 10.7908 31 13C31 15.2091 29.2091 17 27 17C24.7908 17 23 15.2091 23 13Z" fill="#F48432"/>
<path fill-rule="evenodd" clip-rule="evenodd" d="M26.8944 16.4472C25.8653 18.5053 24.6011 20.1343 23.5547 20.832C21.7826 22.0134 20.2409 22.0223 18.908 21.7261C18.4483 21.624 17.9883 21.4783 17.5933 21.3531C17.4629 21.3118 17.3395 21.2727 17.2256 21.2382C16.7256 21.0867 16.3441 20.9999 16 20.9999C15.6414 20.9999 15.2304 21.2276 14.8008 21.7559C14.3846 22.2676 14.0861 22.9039 13.9486 23.3162L12.0513 22.6837C12.2472 22.096 12.6487 21.2323 13.2492 20.494C13.8361 19.7723 14.7585 18.9999 16 18.9999C16.6558 18.9999 17.2743 19.1632 17.8056 19.3242C17.9693 19.3738 18.123 19.4224 18.271 19.4693C18.6407 19.5864 18.9753 19.6923 19.3419 19.7738C20.259 19.9776 21.2173 19.9865 22.4453 19.1679C23.0629 18.7562 24.1346 17.4946 25.1055 15.5527L26.8944 16.4472Z" fill="#F48432"/>
<path fill-rule="evenodd" clip-rule="evenodd" d="M6.74869 6.74869C5.15298 8.3444 4.33325 10.9319 4.33325 14.9999V24.9999C4.33325 29.068 5.15298 31.6554 6.74869 33.2511C8.3444 34.8469 10.9319 35.6666 14.9999 35.6666H24.9999C29.068 35.6666 31.6554 34.8469 33.2511 33.2511C34.8469 31.6554 35.6666 29.068 35.6666 24.9999V14.9999C35.6666 10.9319 34.8469 8.3444 33.2511 6.74869C31.6554 5.15298 29.068 4.33325 24.9999 4.33325H14.9999C10.9319 4.33325 8.3444 5.15298 6.74869 6.74869ZM5.33448 5.33448C7.48877 3.18019 10.7346 2.33325 14.9999 2.33325H24.9999C29.2652 2.33325 32.5111 3.18019 34.6654 5.33448C36.8196 7.48877 37.6666 10.7346 37.6666 14.9999V24.9999C37.6666 29.2652 36.8196 32.5111 34.6654 34.6654C32.5111 36.8196 29.2652 37.6666 24.9999 37.6666H14.9999C10.7346 37.6666 7.48877 36.8196 5.33448 34.6654C3.18019 32.5111 2.33325 29.2652 2.33325 24.9999V14.9999C2.33325 10.7346 3.18019 7.48877 5.33448 5.33448Z" fill="#F48432"/>
</svg>
