<svg width="40" height="40" viewBox="0 0 40 40" fill="none" xmlns="http://www.w3.org/2000/svg">
<path fill-rule="evenodd" clip-rule="evenodd" d="M19.6167 14.8C19.6167 14.2478 20.0644 13.8 20.6167 13.8H29.3667C29.919 13.8 30.3667 14.2478 30.3667 14.8C30.3667 15.3523 29.919 15.8 29.3667 15.8H20.6167C20.0644 15.8 19.6167 15.3523 19.6167 14.8Z" fill="#F48432"/>
<path fill-rule="evenodd" clip-rule="evenodd" d="M16.3404 11.5929C16.7309 11.9835 16.7309 12.6166 16.3404 13.0072L12.5904 16.7572C12.1999 17.1477 11.5667 17.1477 11.1762 16.7572L9.92619 15.5072C9.53567 15.1166 9.53567 14.4835 9.92619 14.0929C10.3167 13.7024 10.9499 13.7024 11.3404 14.0929L11.8833 14.6358L14.9262 11.5929C15.3167 11.2024 15.9499 11.2024 16.3404 11.5929Z" fill="#F48432"/>
<path fill-rule="evenodd" clip-rule="evenodd" d="M19.6167 26.4666C19.6167 25.9143 20.0644 25.4666 20.6167 25.4666H29.3667C29.919 25.4666 30.3667 25.9143 30.3667 26.4666C30.3667 27.0188 29.919 27.4666 29.3667 27.4666H20.6167C20.0644 27.4666 19.6167 27.0188 19.6167 26.4666Z" fill="#F48432"/>
<path fill-rule="evenodd" clip-rule="evenodd" d="M16.3404 23.2594C16.7309 23.65 16.7309 24.2831 16.3404 24.6737L12.5904 28.4237C12.1999 28.8142 11.5667 28.8142 11.1762 28.4237L9.92619 27.1737C9.53567 26.7831 9.53567 26.15 9.92619 25.7594C10.3167 25.3689 10.9499 25.3689 11.3404 25.7594L11.8833 26.3023L14.9262 23.2594C15.3167 22.8689 15.9499 22.8689 16.3404 23.2594Z" fill="#F48432"/>
<path fill-rule="evenodd" clip-rule="evenodd" d="M5.33448 5.33448C7.48877 3.18019 10.7346 2.33325 14.9999 2.33325H24.9999C29.2652 2.33325 32.5111 3.18019 34.6654 5.33448C36.8196 7.48877 37.6666 10.7346 37.6666 14.9999V24.9999C37.6666 29.2652 36.8196 32.5111 34.6654 34.6654C32.5111 36.8196 29.2652 37.6666 24.9999 37.6666H14.9999C10.7346 37.6666 7.48877 36.8196 5.33448 34.6654C3.18019 32.5111 2.33325 29.2652 2.33325 24.9999V14.9999C2.33325 10.7346 3.18019 7.48877 5.33448 5.33448ZM6.74869 6.74869C5.15298 8.3444 4.33325 10.9319 4.33325 14.9999V24.9999C4.33325 29.068 5.15298 31.6554 6.74869 33.2511C8.3444 34.8469 10.9319 35.6666 14.9999 35.6666H24.9999C29.068 35.6666 31.6554 34.8469 33.2511 33.2511C34.8469 31.6554 35.6666 29.068 35.6666 24.9999V14.9999C35.6666 10.9319 34.8469 8.3444 33.2511 6.74869C31.6554 5.15298 29.068 4.33325 24.9999 4.33325H14.9999C10.9319 4.33325 8.3444 5.15298 6.74869 6.74869Z" fill="#F48432"/>
</svg>
