<svg width="47" height="62" viewBox="0 0 47 62" fill="none" xmlns="http://www.w3.org/2000/svg">
<ellipse cx="23.471" cy="59.4861" rx="8.83041" ry="2.45289" fill="#29357A"/>
<path d="M46.0284 23.5104C46.0284 34.5815 41.0481 43.4632 35.6931 49.59C33.0163 52.6525 30.2532 55.0177 27.9892 56.6141C26.8568 57.4125 25.8551 58.0144 25.057 58.4143C24.6576 58.6144 24.3156 58.7606 24.038 58.8559C23.7513 58.9542 23.567 58.9861 23.4713 58.9861C23.3755 58.9861 23.1912 58.9542 22.9045 58.8559C22.6269 58.7606 22.2849 58.6144 21.8855 58.4143C21.0874 58.0144 20.0857 57.4125 18.9533 56.6141C16.6893 55.0177 13.9262 52.6525 11.2494 49.59C5.89436 43.4632 0.914062 34.5815 0.914062 23.5104C0.914062 11.146 11.0099 1.1167 23.4713 1.1167C35.9326 1.1167 46.0284 11.146 46.0284 23.5104Z" fill="white" stroke="#224875"/>
<path d="M32.1665 25.176L26.4083 17.4883L25.1832 19.2573C24.6275 19.9988 23.5584 20.2814 22.8305 20.2947L17.7547 20.4177H17.576H17.5337C16.8824 20.4644 16.2655 20.7348 15.7831 21.185C15.3006 21.6352 14.9809 22.2389 14.8756 22.8983C14.8756 22.9581 14.8561 23.0147 14.8496 23.0712V23.0978C14.8496 23.1477 14.8496 23.1942 14.8496 23.2441V23.3838V23.6099C14.8567 23.8027 14.8828 23.9943 14.9276 24.1818V24.2184V24.2516C15.0945 24.8356 15.4353 25.3517 15.9025 25.728C15.9371 25.7499 15.9729 25.7699 16.0097 25.7878C16.4947 26.1489 17.077 26.3475 17.6767 26.3564H31.6823C31.8095 26.3545 31.9333 26.3144 32.0384 26.2411C32.1436 26.1678 32.2254 26.0645 32.2737 25.9441C32.3312 25.8194 32.3517 25.6801 32.3326 25.5436C32.3136 25.4071 32.2558 25.2793 32.1665 25.176Z" fill="#F48432"/>
<path d="M14.6035 21.6758C14.8398 21.188 15.1821 20.7624 15.6041 20.4319C16.0261 20.1014 16.5165 19.8748 17.0374 19.7696C17.1122 19.7529 17.187 19.7395 17.2651 19.7295C17.4606 19.694 17.6588 19.6761 17.8573 19.6761H18.046L22.8356 19.5693C23.4864 19.5693 24.3193 19.3055 24.7131 18.7814L26.187 16.6449L26.2293 16.5848L26.2619 16.5381L26.4115 16.3244L31.7152 9.03345C31.7919 8.92328 31.837 8.79338 31.8456 8.65833C31.8543 8.52329 31.826 8.38845 31.764 8.26897C31.7097 8.15567 31.626 8.05991 31.5221 7.99219C31.4182 7.92447 31.2982 7.88741 31.1751 7.88506L15.8823 7.88506C15.5743 7.85876 15.2684 7.95667 15.0296 8.158C14.7909 8.35934 14.638 8.64824 14.6035 8.96335C14.6035 9.5776 14.6035 9.93815 14.6035 9.94148V21.6758Z" fill="#224875"/>
<path d="M14.7987 33.1142C14.7924 33.1145 14.786 33.113 14.7802 33.1101C14.7745 33.1071 14.7697 33.1026 14.766 33.0972L13.3206 31.1057H13.067V33.0659C13.067 33.0779 13.0623 33.0895 13.0542 33.0981C13.046 33.1066 13.0349 33.1114 13.0234 33.1114H11.987C11.9755 33.1114 11.9645 33.1066 11.9561 33.0981C11.948 33.0895 11.9434 33.0779 11.9434 33.0659V28.3234C11.9434 28.3113 11.948 28.2997 11.9561 28.2912C11.9645 28.2827 11.9755 28.2779 11.987 28.2779H13.0206C13.0321 28.2779 13.0433 28.2827 13.0515 28.2912C13.0596 28.2997 13.0643 28.3113 13.0643 28.3234V30.1555H13.2442L14.665 28.2949C14.669 28.2898 14.674 28.2856 14.6795 28.2826C14.6853 28.2797 14.6915 28.2781 14.6978 28.2779H15.9877C15.996 28.2776 16.0043 28.2798 16.0114 28.2843C16.0186 28.2887 16.0245 28.2952 16.0281 28.303C16.0318 28.3108 16.0334 28.3195 16.0325 28.3282C16.0317 28.3368 16.0283 28.345 16.0232 28.3518L14.316 30.5339C14.3103 30.5421 14.3071 30.5521 14.3071 30.5623C14.3071 30.5725 14.3103 30.5825 14.316 30.5908L16.1213 33.0431C16.1267 33.0494 16.1302 33.0572 16.1314 33.0656C16.1325 33.0739 16.1312 33.0825 16.1277 33.0901C16.1243 33.0977 16.1187 33.1041 16.1117 33.1084C16.1047 33.1127 16.0967 33.1147 16.0885 33.1142H14.7987Z" fill="#224875"/>
<path d="M16.585 34.4286V29.5325C16.5848 29.5209 16.5891 29.5097 16.5966 29.5013C16.6043 29.4928 16.6147 29.4877 16.6259 29.487H17.6375C17.6487 29.4877 17.6591 29.4928 17.6667 29.5013C17.6742 29.5097 17.6786 29.5209 17.6784 29.5325V30.1015H17.7139C17.7637 29.9915 17.8289 29.8898 17.9075 29.7999C17.9964 29.6933 18.1061 29.6079 18.2293 29.5496C18.3768 29.481 18.5371 29.4479 18.6985 29.4529C18.9369 29.4522 19.1708 29.5202 19.3747 29.6492C19.599 29.7967 19.7772 30.0093 19.8874 30.2608C20.0269 30.5921 20.0931 30.9519 20.0811 31.3134C20.0915 31.6676 20.0282 32.02 19.8956 32.3462C19.7893 32.6008 19.6139 32.8173 19.3911 32.9692C19.1817 33.1078 18.9382 33.18 18.6902 33.1769C18.535 33.1814 18.3807 33.1513 18.2375 33.0887C18.1154 33.0332 18.0052 32.9529 17.913 32.8525C17.8307 32.7593 17.7634 32.6526 17.7139 32.5368H17.6921V34.44C17.6921 34.4521 17.6875 34.4637 17.6794 34.4722C17.6712 34.4807 17.66 34.4855 17.6485 34.4855H16.6259C16.6193 34.4853 16.6128 34.4836 16.607 34.4804C16.6013 34.4773 16.5962 34.4728 16.5922 34.4673C16.5883 34.4619 16.5856 34.4556 16.5843 34.4489C16.5831 34.4422 16.5832 34.4352 16.585 34.4286ZM17.6757 31.2992C17.6722 31.4723 17.6979 31.6448 17.7521 31.8085C17.7938 31.9399 17.8705 32.0563 17.973 32.1442C18.0728 32.2215 18.1937 32.2633 18.318 32.2633C18.4423 32.2633 18.5633 32.2215 18.663 32.1442C18.7638 32.0559 18.8386 31.9395 18.8784 31.8085C18.9765 31.4767 18.9765 31.1217 18.8784 30.79C18.838 30.6609 18.7643 30.5458 18.6657 30.4571C18.5657 30.3774 18.4423 30.3362 18.3166 30.3405C18.1921 30.336 18.0699 30.3762 17.9703 30.4543C17.8695 30.5409 17.7939 30.6552 17.7521 30.7843C17.6944 30.9502 17.6658 31.1256 17.6675 31.3021L17.6757 31.2992Z" fill="#224875"/>
<path d="M23.9372 31.5809V31.2964C23.9414 31.0273 23.8998 30.7595 23.8145 30.5055C23.7383 30.2879 23.6194 30.0892 23.4654 29.9223C23.3109 29.7633 23.1247 29.6418 22.92 29.5667C22.7022 29.4851 22.4723 29.4447 22.2409 29.4472C21.9218 29.4384 21.6064 29.519 21.3273 29.6805C21.0715 29.8355 20.8633 30.0635 20.7274 30.3376C20.5849 30.6419 20.5157 30.9778 20.5256 31.3163C20.5168 31.6614 20.59 32.0034 20.7383 32.312C20.8743 32.5851 21.085 32.8099 21.3437 32.9578C21.6341 33.1145 21.9578 33.1918 22.2846 33.1826C22.5583 33.188 22.8304 33.1387 23.0864 33.0375C23.2976 32.9498 23.485 32.8091 23.6317 32.6278C23.7675 32.4655 23.8615 32.2696 23.9045 32.0588C23.9061 32.0522 23.9062 32.0453 23.905 32.0386C23.9037 32.0319 23.901 32.0256 23.8971 32.0201C23.8931 32.0146 23.8882 32.0102 23.8823 32.007C23.8765 32.0039 23.8701 32.0021 23.8636 32.0019L22.8981 31.9735C22.8721 32.0508 22.828 32.1202 22.77 32.1755C22.7114 32.2323 22.6415 32.2751 22.5655 32.3006C22.4774 32.3306 22.3852 32.345 22.2927 32.3433C22.1646 32.3463 22.0379 32.3149 21.9246 32.2523C21.8241 32.1906 21.7419 32.1009 21.6873 31.9934C21.6299 31.8723 21.601 31.7387 21.6028 31.6036V31.5752L23.9372 31.5809ZM21.9436 30.3689C22.0457 30.3112 22.1603 30.2818 22.2764 30.2836C22.3892 30.2806 22.5011 30.308 22.6009 30.3632C22.6935 30.4158 22.7706 30.4935 22.8245 30.588C22.8795 30.6886 22.9087 30.8022 22.909 30.918H21.6163C21.6203 30.8065 21.6513 30.6978 21.7065 30.6022C21.7637 30.5034 21.8456 30.4227 21.9436 30.3689Z" fill="#224875"/>
<path d="M24.3081 34.1839C24.2969 34.1831 24.2866 34.178 24.2791 34.1696C24.2714 34.1611 24.2672 34.1499 24.2672 34.1383V32.2237H24.5398C24.6285 32.1721 24.6956 32.0879 24.7281 31.9876C24.779 31.8536 24.8166 31.7143 24.8399 31.5722C24.8671 31.4157 24.889 31.2507 24.9025 31.0772C24.9163 30.9037 24.9299 30.7415 24.9434 30.5907L25.0225 29.5296C25.0225 29.524 25.0237 29.5184 25.0257 29.5132C25.0278 29.508 25.0307 29.5033 25.0345 29.4994C25.0384 29.4954 25.0428 29.4923 25.0478 29.4901C25.0527 29.488 25.0582 29.4869 25.0634 29.4869H27.7905C27.8022 29.4869 27.8132 29.4917 27.8214 29.5002C27.8297 29.5088 27.8341 29.5203 27.8341 29.5324V32.1782C27.8341 32.1902 27.8388 32.2018 27.8469 32.2104C27.8552 32.2189 27.8663 32.2237 27.8779 32.2237H28.336C28.3471 32.2244 28.3574 32.2295 28.3651 32.238C28.3728 32.2465 28.3769 32.2576 28.3769 32.2692V34.1383C28.3769 34.1499 28.3728 34.1611 28.3651 34.1696C28.3574 34.178 28.3471 34.1831 28.336 34.1839H27.3706C27.3591 34.1839 27.3479 34.1791 27.3398 34.1705C27.3316 34.162 27.327 34.1504 27.327 34.1383V33.1597C27.327 33.1476 27.3223 33.136 27.3142 33.1275C27.3061 33.119 27.2949 33.1142 27.2834 33.1142H25.3934C25.3824 33.1149 25.372 33.12 25.3643 33.1285C25.3568 33.1369 25.3525 33.1481 25.3525 33.1597V34.1383C25.3525 34.1504 25.348 34.162 25.3397 34.1705C25.3316 34.1791 25.3205 34.1839 25.3089 34.1839H24.3081ZM25.6716 32.2237H26.7625C26.7741 32.2237 26.7851 32.2189 26.7933 32.2104C26.8014 32.2018 26.8061 32.1902 26.8061 32.1782V30.3916C26.8061 30.3795 26.8014 30.3679 26.7933 30.3594C26.7851 30.3508 26.7741 30.3461 26.7625 30.3461H25.9443L25.9281 30.5907C25.913 30.9197 25.8793 31.2474 25.8271 31.5722C25.7977 31.7773 25.7369 31.9761 25.6471 32.1611C25.644 32.167 25.6422 32.1735 25.6419 32.1802C25.6417 32.1869 25.6428 32.1935 25.6455 32.1996C25.6483 32.2057 25.6523 32.211 25.6572 32.2152C25.6622 32.2194 25.6681 32.2223 25.6743 32.2237H25.6716Z" fill="#224875"/>
<path d="M29.975 31.5267L31.0249 29.5153C31.0287 29.5083 31.0343 29.5026 31.0411 29.4986C31.0478 29.4946 31.0554 29.4925 31.0631 29.4926H32.0584C32.0701 29.4926 32.0811 29.4974 32.0894 29.5059C32.0976 29.5144 32.1022 29.526 32.1022 29.5381V33.0687C32.1022 33.0807 32.0976 33.0923 32.0894 33.1008C32.0811 33.1094 32.0701 33.1142 32.0584 33.1142H31.0959C31.0847 33.1134 31.0743 33.1083 31.0668 33.0999C31.0591 33.0914 31.055 33.0802 31.055 33.0687V31.0772C31.0542 31.0709 31.0518 31.0649 31.0476 31.0601C31.0436 31.0553 31.0383 31.0519 31.0324 31.0503C31.0265 31.0488 31.0201 31.0492 31.0145 31.0514C31.0088 31.0537 31.0038 31.0577 31.0003 31.063L29.9559 33.0772C29.9523 33.0844 29.9467 33.0903 29.94 33.0944C29.9333 33.0984 29.9254 33.1003 29.9178 33.0999H28.9223C28.9108 33.0999 28.8996 33.0951 28.8914 33.0866C28.8833 33.0781 28.8787 33.0665 28.8787 33.0544V29.5324C28.8787 29.5203 28.8833 29.5088 28.8914 29.5002C28.8996 29.4917 28.9108 29.4869 28.9223 29.4869H29.8823C29.8938 29.4869 29.905 29.4917 29.9131 29.5002C29.9213 29.5088 29.9259 29.5203 29.9259 29.5324V31.5239C29.9278 31.5288 29.9312 31.5331 29.9353 31.5362C29.9395 31.5393 29.9444 31.5411 29.9495 31.5414C29.9547 31.5417 29.9598 31.5405 29.9643 31.5379C29.9689 31.5353 29.9726 31.5314 29.975 31.5267Z" fill="#224875"/>
<path d="M32.6256 30.3261V29.5324C32.6256 29.5203 32.6303 29.5088 32.6384 29.5002C32.6467 29.4917 32.6578 29.4869 32.6694 29.4869H35.8437C35.8552 29.4869 35.8664 29.4917 35.8746 29.5002C35.8827 29.5088 35.8874 29.5203 35.8874 29.5324V30.3261C35.8874 30.3382 35.8827 30.3498 35.8746 30.3583C35.8664 30.3669 35.8552 30.3717 35.8437 30.3717H34.8182C34.8072 30.3716 34.7965 30.376 34.7884 30.384C34.7802 30.3919 34.7754 30.4027 34.7746 30.4143V33.0687C34.7746 33.0807 34.7701 33.0923 34.7618 33.1008C34.7537 33.1094 34.7427 33.1142 34.731 33.1142H33.7684C33.7568 33.1142 33.7457 33.1094 33.7374 33.1008C33.7293 33.0923 33.7247 33.0807 33.7247 33.0687V30.4143C33.724 30.4027 33.7191 30.3919 33.7111 30.384C33.7029 30.376 33.6922 30.3716 33.681 30.3717H32.6694C32.6637 30.3717 32.6579 30.3705 32.6526 30.3682C32.6474 30.3659 32.6426 30.3626 32.6384 30.3583C32.6344 30.3541 32.6312 30.3491 32.629 30.3435C32.6269 30.338 32.6256 30.3321 32.6256 30.3261Z" fill="#224875"/>
<path d="M14.5584 34.5309V39.2785C14.5584 39.2905 14.5538 39.3021 14.5459 39.3107C14.5377 39.3192 14.5269 39.324 14.5157 39.324H13.9173C13.9059 39.324 13.8951 39.3192 13.887 39.3107C13.879 39.3021 13.8745 39.2905 13.8745 39.2785V35.1542C13.8745 35.1421 13.8701 35.1306 13.8621 35.122C13.854 35.1135 13.8432 35.1087 13.8317 35.1087H11.7805C11.769 35.1087 11.7582 35.1135 11.7503 35.122C11.7423 35.1306 11.7377 35.1421 11.7377 35.1542V39.2785C11.7377 39.2905 11.7332 39.3021 11.7252 39.3107C11.7172 39.3192 11.7063 39.324 11.695 39.324H11.0967C11.0857 39.3233 11.0756 39.3182 11.0682 39.3097C11.0607 39.3012 11.0566 39.2901 11.0566 39.2785V34.5309C11.0566 34.5193 11.0607 34.5081 11.0682 34.4997C11.0756 34.4912 11.0857 34.4861 11.0967 34.4854H14.5263C14.5357 34.4879 14.544 34.4939 14.5498 34.5021C14.5556 34.5104 14.5587 34.5206 14.5584 34.5309Z" fill="#F48432"/>
<path d="M16.543 39.4038C16.3416 39.407 16.1419 39.3633 15.958 39.2757C15.7887 39.1959 15.6448 39.0654 15.5439 38.9C15.4383 38.7204 15.3852 38.5113 15.3918 38.2994C15.3858 38.1232 15.4235 37.9484 15.5012 37.7928C15.5744 37.6621 15.6785 37.5542 15.8031 37.4797C15.9341 37.3993 16.0752 37.3399 16.2225 37.3032C16.3793 37.265 16.538 37.2356 16.6978 37.215L17.1973 37.1467C17.2905 37.1377 17.3812 37.1097 17.4645 37.0641C17.4936 37.0449 17.5174 37.0174 17.5329 36.9848C17.5485 36.9522 17.5553 36.9156 17.5526 36.8791C17.5579 36.7913 17.5462 36.7033 17.5182 36.6205C17.4902 36.5378 17.4463 36.462 17.3897 36.3981C17.3232 36.337 17.246 36.2904 17.1626 36.2611C17.0792 36.2318 16.9911 36.2203 16.9036 36.2273C16.7137 36.2148 16.5255 36.271 16.3693 36.3867C16.2626 36.4685 16.1763 36.577 16.1183 36.7026C16.1142 36.7114 16.1076 36.7184 16.0993 36.7225C16.091 36.7267 16.0816 36.7277 16.0729 36.7254L15.5386 36.5945C15.5325 36.593 15.5268 36.59 15.5218 36.5859C15.517 36.5817 15.5129 36.5765 15.5101 36.5705C15.5074 36.5645 15.5059 36.558 15.5057 36.5513C15.5055 36.5446 15.5068 36.538 15.5093 36.5319C15.5736 36.3466 15.679 36.1806 15.8164 36.048C15.9577 35.9112 16.1255 35.8092 16.3079 35.7492C16.4986 35.6883 16.6965 35.6576 16.8954 35.6581C17.0408 35.6595 17.1858 35.6758 17.3282 35.7064C17.4812 35.7402 17.6271 35.8039 17.7582 35.8943C17.8977 35.9888 18.0119 36.1202 18.0894 36.2757C18.1821 36.4763 18.226 36.6984 18.2177 36.9218V39.2871C18.2177 39.2991 18.2132 39.3107 18.2052 39.3193C18.1971 39.3278 18.1863 39.3326 18.175 39.3326H17.6113C17.6 39.3326 17.5892 39.3278 17.5811 39.3193C17.5731 39.3107 17.5686 39.2991 17.5686 39.2871V38.8288H17.5446C17.4931 38.9284 17.4274 39.0186 17.3496 39.0964C17.254 39.1915 17.1426 39.2668 17.0211 39.3184C16.8681 39.3781 16.7059 39.407 16.543 39.4038ZM16.6871 38.8345C16.8507 38.8388 17.0125 38.7987 17.1573 38.7178C17.2836 38.6503 17.3898 38.5468 17.4645 38.4189C17.5332 38.2969 17.5692 38.1571 17.5686 38.0148V37.548C17.529 37.5819 17.4822 37.6053 17.4324 37.6163C17.3571 37.6402 17.2804 37.6582 17.2027 37.6704L16.9516 37.7131L16.7487 37.7415C16.6281 37.7558 16.5098 37.7855 16.3961 37.8298C16.2946 37.8613 16.2028 37.9201 16.1289 38.0005C16.0641 38.0867 16.0309 38.1949 16.0355 38.3051C16.0314 38.3821 16.046 38.4589 16.0777 38.5282C16.1095 38.5975 16.1575 38.6569 16.217 38.7007C16.3566 38.7972 16.5209 38.8449 16.6871 38.8374V38.8345Z" fill="#F48432"/>
<path d="M19.1045 40.639V35.7405C19.1045 35.7285 19.109 35.7169 19.117 35.7083C19.125 35.6998 19.1359 35.695 19.1472 35.695H19.7108C19.7222 35.695 19.733 35.6998 19.741 35.7083C19.7489 35.7169 19.7535 35.7285 19.7535 35.7405V36.2927H19.807C19.856 36.2006 19.9123 36.113 19.9753 36.0309C20.0566 35.9222 20.1585 35.8329 20.2743 35.769C20.4332 35.6877 20.6085 35.6496 20.7845 35.658C21.0454 35.6537 21.3016 35.7309 21.5218 35.88C21.7451 36.0371 21.9212 36.2595 22.0292 36.5204C22.1619 36.836 22.2259 37.1795 22.2162 37.5252C22.225 37.8714 22.1621 38.2154 22.032 38.5327C21.9232 38.7948 21.7473 39.0187 21.5245 39.1788C21.3072 39.3304 21.0521 39.4088 20.7925 39.4037C20.6174 39.4116 20.4432 39.3735 20.2851 39.2927C20.1676 39.2288 20.0632 39.1408 19.9779 39.0337C19.9142 38.9506 19.8569 38.8621 19.807 38.769H19.7669V40.6475C19.7669 40.6596 19.7624 40.6712 19.7544 40.6797C19.7463 40.6882 19.7355 40.693 19.7242 40.693H19.1472C19.1408 40.6932 19.1345 40.6918 19.1287 40.689C19.1229 40.6862 19.1178 40.682 19.1137 40.6769C19.1096 40.6717 19.1067 40.6656 19.1051 40.659C19.1035 40.6525 19.1032 40.6456 19.1045 40.639ZM19.7535 37.5081C19.7493 37.736 19.7846 37.9627 19.8577 38.1769C19.9164 38.3543 20.0209 38.5102 20.1595 38.6267C20.2989 38.7374 20.4693 38.7946 20.643 38.7889C20.8218 38.7948 20.9969 38.7356 21.1398 38.621C21.2791 38.5006 21.3838 38.3408 21.4417 38.1599C21.5137 37.9513 21.5489 37.7303 21.5458 37.5081C21.5484 37.288 21.5141 37.0691 21.4443 36.862C21.3861 36.6844 21.2814 36.5283 21.1424 36.4123C20.9975 36.3058 20.8257 36.2487 20.6496 36.2487C20.4737 36.2487 20.3017 36.3058 20.1568 36.4123C20.0227 36.53 19.9225 36.6859 19.8684 36.862C19.7945 37.0694 19.7557 37.2891 19.7535 37.5109V37.5081Z" fill="#F48432"/>
<path d="M22.7665 36.2614V35.7405C22.7665 35.7284 22.771 35.7169 22.779 35.7083C22.787 35.6998 22.7979 35.695 22.8092 35.695H25.5977C25.6092 35.695 25.62 35.6998 25.6279 35.7083C25.6359 35.7169 25.6405 35.7284 25.6405 35.7405V36.2614C25.6398 36.273 25.635 36.2838 25.627 36.2918C25.6192 36.2997 25.6087 36.3041 25.5977 36.3041H24.572C24.5607 36.3041 24.5498 36.3089 24.5418 36.3174C24.5338 36.326 24.5293 36.3375 24.5293 36.3496V39.2784C24.5293 39.2905 24.5249 39.3021 24.5168 39.3106C24.5088 39.3192 24.498 39.324 24.4866 39.324H23.9257C23.9144 39.324 23.9034 39.3192 23.8955 39.3106C23.8875 39.3021 23.8829 39.2905 23.8829 39.2784V36.3496C23.8829 36.3375 23.8784 36.326 23.8704 36.3174C23.8624 36.3089 23.8515 36.3041 23.8402 36.3041H22.8065C22.796 36.3034 22.7863 36.2987 22.7788 36.2908C22.7715 36.283 22.7671 36.2725 22.7665 36.2614Z" fill="#F48432"/>
<path d="M29.0701 35.695H28.5065C28.4952 35.695 28.4843 35.6998 28.4763 35.7083C28.4683 35.7169 28.4638 35.7284 28.4638 35.7405V37.2063H26.9894V35.7405C26.9894 35.7284 26.9848 35.7169 26.9768 35.7083C26.9689 35.6998 26.9579 35.695 26.9466 35.695H26.3831C26.3716 35.695 26.3608 35.6998 26.3529 35.7083C26.3449 35.7169 26.3403 35.7284 26.3403 35.7405V39.2784C26.3403 39.2905 26.3449 39.3021 26.3529 39.3106C26.3608 39.3192 26.3716 39.324 26.3831 39.324H26.9466C26.9579 39.324 26.9689 39.3192 26.9768 39.3106C26.9848 39.3021 26.9894 39.2905 26.9894 39.2784V37.8155H28.4638V39.2784C28.4638 39.2905 28.4683 39.3021 28.4763 39.3106C28.4843 39.3192 28.4952 39.324 28.5065 39.324H29.0701C29.0815 39.324 29.0923 39.3192 29.1004 39.3106C29.1084 39.3021 29.1129 39.2905 29.1129 39.2784V35.7405C29.1129 35.7284 29.1084 35.7169 29.1004 35.7083C29.0923 35.6998 29.0815 35.695 29.0701 35.695Z" fill="#F48432"/>
<path d="M32.9244 37.4711C32.9314 37.1856 32.8898 36.9011 32.8015 36.6314C32.7297 36.4171 32.6137 36.2226 32.4624 36.0622C32.323 35.9209 32.1574 35.8123 31.9762 35.7434C31.797 35.6763 31.6081 35.6426 31.4179 35.6438C31.1265 35.6367 30.8392 35.7187 30.59 35.88C30.351 36.0419 30.1601 36.2729 30.0398 36.546C29.9033 36.8526 29.8357 37.1888 29.8421 37.528C29.8354 37.8682 29.903 38.2053 30.0398 38.5128C30.1628 38.7822 30.3568 39.0077 30.598 39.1618C30.8612 39.3214 31.1606 39.4011 31.4635 39.3923C31.6902 39.3954 31.9157 39.3539 32.1284 39.2699C32.3115 39.196 32.4768 39.0792 32.6119 38.9284C32.7341 38.7973 32.8256 38.6374 32.879 38.4616C32.8806 38.4552 32.8809 38.4486 32.8801 38.4421C32.8792 38.4356 32.877 38.4293 32.8737 38.4237C32.8706 38.4181 32.8662 38.4133 32.8612 38.4095C32.8562 38.4058 32.8504 38.4031 32.8443 38.4018L32.3101 38.2965C32.3006 38.2952 32.291 38.2972 32.2827 38.3024C32.2746 38.3075 32.2682 38.3155 32.2647 38.325C32.2272 38.4188 32.1727 38.5039 32.1045 38.5754C32.0294 38.6547 31.9378 38.7141 31.8373 38.7491C31.7276 38.7903 31.6118 38.8105 31.4954 38.8088C31.3181 38.813 31.1429 38.7669 30.988 38.675C30.8313 38.5891 30.7043 38.4526 30.6248 38.2851C30.5478 38.1065 30.5077 37.9124 30.5072 37.7159H32.9111L32.9244 37.4711ZM32.23 37.1864H30.5099C30.5169 37.0341 30.5532 36.8849 30.6166 36.7481C30.6899 36.5953 30.7994 36.4657 30.9345 36.3724C31.0796 36.2739 31.2487 36.2234 31.4206 36.2273C31.5736 36.2219 31.725 36.2626 31.8572 36.3447C31.9895 36.4267 32.0974 36.5468 32.1685 36.6912C32.2336 36.8303 32.2701 36.9827 32.2754 37.1381C32.2757 37.1448 32.2749 37.1515 32.2727 37.1579C32.2707 37.1643 32.2674 37.1701 32.2632 37.1751C32.259 37.1802 32.2539 37.1842 32.2482 37.1872C32.2425 37.1901 32.2363 37.1918 32.23 37.1921V37.1864Z" fill="#F48432"/>
<path d="M33.6617 40.639V35.7405C33.6617 35.7285 33.6662 35.7169 33.6742 35.7083C33.6822 35.6998 33.693 35.695 33.7044 35.695H34.268C34.2792 35.695 34.2902 35.6998 34.2982 35.7083C34.3062 35.7169 34.3107 35.7285 34.3107 35.7405V36.2927H34.3669C34.4149 36.2005 34.4703 36.1129 34.5325 36.0309C34.6148 35.9221 34.7176 35.8329 34.8342 35.769C34.993 35.6877 35.1683 35.6496 35.3444 35.658C35.6043 35.6543 35.8596 35.7314 36.079 35.88C36.3023 36.0378 36.4793 36.2599 36.5891 36.5204C36.7196 36.8367 36.7825 37.1798 36.7734 37.5252C36.7822 37.8714 36.7193 38.2154 36.5891 38.5327C36.4806 38.794 36.3058 39.0178 36.0843 39.1788C35.8662 39.3305 35.6101 39.4088 35.3497 39.4037C35.1746 39.4109 35.0006 39.3728 34.8422 39.2927C34.7248 39.2288 34.6204 39.1408 34.5351 39.0337C34.472 38.9506 34.4159 38.8621 34.3669 38.769H34.3268V40.6475C34.3268 40.6596 34.3223 40.6712 34.3143 40.6797C34.3062 40.6882 34.2954 40.693 34.2839 40.693H33.7044C33.698 40.6932 33.6917 40.6918 33.6859 40.689C33.6801 40.6862 33.675 40.682 33.6709 40.6769C33.6668 40.6717 33.6639 40.6656 33.6623 40.659C33.6607 40.6525 33.6604 40.6456 33.6617 40.639ZM34.3134 37.5081C34.3091 37.736 34.3445 37.9627 34.4176 38.1769C34.4752 38.3549 34.58 38.5111 34.7193 38.6267C34.8577 38.7374 35.0273 38.7946 35.2001 38.7889C35.379 38.7958 35.5546 38.7364 35.697 38.621C35.8363 38.5 35.9418 38.3405 36.0015 38.1599C36.0712 37.9507 36.1056 37.73 36.103 37.5081C36.1066 37.2881 36.0731 37.0693 36.0042 36.862C35.945 36.6849 35.8405 36.529 35.7023 36.4123C35.5571 36.3055 35.3846 36.2484 35.2082 36.2484C35.0317 36.2484 34.8594 36.3055 34.714 36.4123C34.5757 36.5282 34.4717 36.6844 34.4149 36.862C34.3443 37.0699 34.3099 37.2898 34.3134 37.5109V37.5081Z" fill="#F48432"/>
</svg>
