<svg width="40" height="40" viewBox="0 0 40 40" fill="none" xmlns="http://www.w3.org/2000/svg">
<path fill-rule="evenodd" clip-rule="evenodd" d="M2.3335 28.4333C2.3335 27.8811 2.78121 27.4333 3.3335 27.4333H20.0002C20.5524 27.4333 21.0002 27.8811 21.0002 28.4333C21.0002 28.9856 20.5524 29.4333 20.0002 29.4333H3.3335C2.78121 29.4333 2.3335 28.9856 2.3335 28.4333Z" fill="#7CC049"/>
<path fill-rule="evenodd" clip-rule="evenodd" d="M4.77541 23.9431C4.54219 24.1746 4.3335 24.6925 4.3335 26.1667V33.0167C4.3335 34.4909 4.54219 35.0088 4.77541 35.2402C5.01138 35.4744 5.54106 35.6833 7.03345 35.6833H16.3002C17.7926 35.6833 18.3223 35.4744 18.5582 35.2402C18.7915 35.0088 19.0002 34.4909 19.0002 33.0167V26.1667C19.0002 24.6925 18.7915 24.1746 18.5582 23.9431C18.3223 23.7089 17.7926 23.5 16.3002 23.5H7.03345C5.54106 23.5 5.01138 23.7089 4.77541 23.9431ZM3.36653 22.5236C4.23887 21.6578 5.55916 21.5 7.03345 21.5H16.3002C17.7745 21.5 19.0948 21.6578 19.9671 22.5236C20.8422 23.3921 21.0002 24.7075 21.0002 26.1667V33.0167C21.0002 34.4758 20.8422 35.7912 19.9671 36.6598C19.0948 37.5256 17.7745 37.6833 16.3002 37.6833H7.03345C5.55916 37.6833 4.23887 37.5256 3.36653 36.6598C2.49144 35.7912 2.3335 34.4758 2.3335 33.0167V26.1667C2.3335 24.7075 2.49144 23.3921 3.36653 22.5236Z" fill="#7CC049"/>
<path fill-rule="evenodd" clip-rule="evenodd" d="M36.6667 24C37.219 24 37.6667 24.4477 37.6667 25C37.6667 32.0023 32.0023 37.6667 25 37.6667C24.6397 37.6667 24.3073 37.4729 24.1298 37.1594C23.9523 36.8459 23.9571 36.4611 24.1425 36.1522L25.8925 33.2355C26.1766 32.7619 26.7909 32.6084 27.2645 32.8925C27.7381 33.1767 27.8916 33.7909 27.6075 34.2645L26.8632 35.505C31.8704 34.6255 35.6667 30.262 35.6667 25C35.6667 24.4477 36.1144 24 36.6667 24Z" fill="#7CC049"/>
<path fill-rule="evenodd" clip-rule="evenodd" d="M13.137 4.49491C8.1298 5.37442 4.3335 9.73789 4.3335 14.9999C4.3335 15.5522 3.88578 15.9999 3.3335 15.9999C2.78121 15.9999 2.3335 15.5522 2.3335 14.9999C2.3335 7.99763 7.99788 2.33325 15.0002 2.33325C15.3604 2.33325 15.6929 2.52704 15.8704 2.84055C16.0479 3.15406 16.043 3.53881 15.8577 3.84774L14.1077 6.76441C13.8235 7.23799 13.2093 7.39156 12.7357 7.10741C12.2621 6.82327 12.1085 6.20901 12.3927 5.73543L13.137 4.49491Z" fill="#7CC049"/>
<path fill-rule="evenodd" clip-rule="evenodd" d="M30.8335 4.33325C27.2436 4.33325 24.3335 7.2434 24.3335 10.8333C24.3335 14.4231 27.2436 17.3333 30.8335 17.3333C34.4233 17.3333 37.3335 14.4231 37.3335 10.8333C37.3335 7.2434 34.4233 4.33325 30.8335 4.33325ZM22.3335 10.8333C22.3335 6.13883 26.1391 2.33325 30.8335 2.33325C35.5279 2.33325 39.3335 6.13883 39.3335 10.8333C39.3335 15.5277 35.5279 19.3333 30.8335 19.3333C26.1391 19.3333 22.3335 15.5277 22.3335 10.8333Z" fill="#7CC049"/>
</svg>
