<svg width="40" height="40" viewBox="0 0 40 40" fill="none" xmlns="http://www.w3.org/2000/svg">
<path fill-rule="evenodd" clip-rule="evenodd" d="M23.3003 3.64055C25.2307 4.29406 26.5461 6.41355 26.1168 8.43343L25.2892 13.7303C25.2141 14.274 25.5592 14.5834 25.9667 14.5834H32.6333C34.1539 14.5834 35.4736 15.1986 36.2717 16.2819C37.0723 17.3683 37.256 18.8017 36.7462 20.2404L32.7607 32.3632C32.4362 33.6173 31.6126 34.6639 30.6197 35.3904C29.6176 36.1236 28.373 36.5834 27.1333 36.5834H20.8C20.2034 36.5834 19.486 36.4861 18.8169 36.2949C18.1934 36.1168 17.4853 35.8217 16.977 35.3399L11.8545 31.3741L13.0788 29.7927L18.2956 33.8315L18.3404 33.8763C18.496 34.0318 18.8443 34.2227 19.3664 34.3719C19.864 34.514 20.3966 34.5834 20.8 34.5834H27.1333C27.8937 34.5834 28.7324 34.2932 29.4387 33.7764C30.1442 33.2601 30.6475 32.5702 30.8299 31.8409L30.8387 31.8056L34.858 19.5803C35.1759 18.69 35.0254 17.962 34.6616 17.4683C34.2931 16.9681 33.6128 16.5834 32.6333 16.5834H25.9667C24.3755 16.5834 23.0549 15.2282 23.3101 13.442L23.3119 13.429L24.1502 8.06422L24.1572 8.03313C24.3714 7.0691 23.6998 5.88187 22.6504 5.53208L22.6329 5.52622L22.6155 5.51972C22.2116 5.36824 21.7059 5.3789 21.2084 5.54991C20.7042 5.72324 20.3199 6.02299 20.1321 6.30476L20.13 6.3079L13.2966 16.4746L11.6367 15.3589L18.468 5.19536C18.4683 5.19478 18.4687 5.1942 18.4691 5.19362C18.948 4.47627 19.7298 3.94331 20.5583 3.65854C21.3888 3.37303 22.3759 3.29947 23.3003 3.64055Z" fill="#7CC049"/>
<path fill-rule="evenodd" clip-rule="evenodd" d="M5.43674 12.5264C5.19679 12.7479 4.9668 13.1959 4.9668 14.2499V30.5833C4.9668 31.6372 5.19679 32.0853 5.43674 32.3068C5.69635 32.5464 6.21011 32.7499 7.30013 32.7499H8.9668C10.0568 32.7499 10.5706 32.5464 10.8302 32.3068C11.0701 32.0853 11.3001 31.6372 11.3001 30.5833V14.2499C11.3001 13.1959 11.0701 12.7479 10.8302 12.5264C10.5706 12.2868 10.0568 12.0833 8.9668 12.0833H7.30013C6.21011 12.0833 5.69635 12.2868 5.43674 12.5264ZM4.08018 11.0568C4.90391 10.2964 6.05682 10.0833 7.30013 10.0833H8.9668C10.2101 10.0833 11.363 10.2964 12.1867 11.0568C13.0301 11.8353 13.3001 12.9706 13.3001 14.2499V30.5833C13.3001 31.8626 13.0301 32.9979 12.1867 33.7764C11.363 34.5368 10.2101 34.7499 8.9668 34.7499H7.30013C6.05682 34.7499 4.90391 34.5368 4.08018 33.7764C3.2368 32.9979 2.9668 31.8626 2.9668 30.5833V14.2499C2.9668 12.9706 3.2368 11.8353 4.08018 11.0568Z" fill="#7CC049"/>
</svg>
