<svg width="230" height="51" viewBox="0 0 230 51" fill="none" xmlns="http://www.w3.org/2000/svg">
<g clip-path="url(#clip0_31_606)">
<mask id="mask0_31_606" style="mask-type:luminance" maskUnits="userSpaceOnUse" x="0" y="0" width="230" height="51">
<path d="M230 0H0V51H230V0Z" fill="white"/>
</mask>
<g mask="url(#mask0_31_606)">
<path d="M70.5496 31.1573C70.5284 31.1581 70.5072 31.1534 70.4881 31.1437C70.4691 31.134 70.4532 31.1196 70.441 31.1018L65.647 24.6203H64.806V30.9999C64.806 31.0392 64.7906 31.0769 64.7636 31.1047C64.7366 31.1325 64.6995 31.148 64.6613 31.148H61.224C61.1859 31.148 61.1493 31.1325 61.1217 31.1047C61.0947 31.0769 61.0793 31.0392 61.0793 30.9999V15.5647C61.0793 15.5255 61.0947 15.4878 61.1217 15.46C61.1493 15.4322 61.1859 15.4166 61.224 15.4166H64.6523C64.6905 15.4166 64.7276 15.4322 64.7546 15.46C64.7816 15.4878 64.797 15.5255 64.797 15.5647V21.5277H65.3937L70.1061 15.4721C70.1193 15.4554 70.1357 15.4418 70.1543 15.4321C70.1734 15.4225 70.194 15.4172 70.2147 15.4166H74.493C74.5206 15.4157 74.5481 15.4229 74.5714 15.4374C74.5953 15.4519 74.6149 15.4731 74.6271 15.4984C74.6393 15.5237 74.6446 15.5522 74.6414 15.5803C74.6387 15.6085 74.6276 15.6352 74.6107 15.6573L68.9486 22.7592C68.9296 22.7861 68.919 22.8185 68.919 22.8518C68.919 22.885 68.9296 22.9174 68.9486 22.9443L74.9361 30.9258C74.9541 30.9463 74.9657 30.9717 74.9694 30.999C74.9732 31.0262 74.9689 31.054 74.9572 31.0787C74.9461 31.1035 74.9276 31.1243 74.9043 31.1382C74.8809 31.1522 74.8544 31.1589 74.8274 31.1573H70.5496Z" fill="#224875"/>
<path d="M76.4739 35.4351V19.4999C76.4734 19.4622 76.4877 19.4258 76.5126 19.3984C76.538 19.3708 76.5725 19.3542 76.6096 19.3518H79.9647C80.0018 19.3542 80.0362 19.3708 80.0617 19.3984C80.0866 19.4258 80.1009 19.4622 80.1004 19.4999V21.3518H80.218C80.3834 20.9937 80.5996 20.6629 80.8603 20.3703C81.155 20.0233 81.5191 19.7454 81.9277 19.5555C82.4168 19.3323 82.9483 19.2247 83.4836 19.2407C84.2743 19.2387 85.0501 19.4598 85.7264 19.8796C86.4704 20.3598 87.0613 21.0516 87.427 21.8703C87.8896 22.9484 88.109 24.1194 88.0693 25.2963C88.1037 26.449 87.8939 27.5957 87.454 28.6574C87.1016 29.486 86.5197 30.1909 85.781 30.6851C85.0862 31.1364 84.2785 31.3712 83.456 31.3611C82.9415 31.3758 82.4295 31.278 81.9547 31.074C81.5498 30.8935 81.1841 30.6323 80.8783 30.3055C80.6054 30.002 80.3823 29.6548 80.218 29.2777H80.1459V35.4722C80.1459 35.5115 80.1306 35.5491 80.1035 35.577C80.0765 35.6047 80.0394 35.6203 80.0013 35.6203H76.6096C76.5878 35.6196 76.5661 35.6139 76.547 35.6037C76.528 35.5935 76.511 35.5789 76.4977 35.5611C76.485 35.5434 76.476 35.5228 76.4718 35.501C76.4675 35.4791 76.4681 35.4567 76.4739 35.4351ZM80.0914 25.2499C80.0797 25.8134 80.165 26.3746 80.3447 26.9074C80.483 27.3353 80.7374 27.7141 81.0776 28C81.4083 28.2517 81.8095 28.3877 82.2218 28.3877C82.6341 28.3877 83.0353 28.2517 83.3659 28C83.7003 27.7127 83.9484 27.3337 84.0803 26.9074C84.4057 25.8275 84.4057 24.6724 84.0803 23.5925C83.9463 23.1724 83.7019 22.7978 83.375 22.5092C83.0432 22.2497 82.6341 22.1156 82.217 22.1296C81.8042 22.1151 81.3988 22.2458 81.0686 22.5C80.7342 22.782 80.4835 23.154 80.3447 23.574C80.1534 24.114 80.0585 24.6848 80.0643 25.2592L80.0914 25.2499Z" fill="#224875"/>
<path d="M100.859 26.1666V25.2407C100.872 24.3648 100.735 23.4933 100.452 22.6666C100.199 21.9583 99.8046 21.3118 99.2937 20.7685C98.7813 20.251 98.1638 19.8557 97.485 19.6111C96.7627 19.3457 96 19.214 95.2327 19.2222C94.1744 19.1936 93.1282 19.4558 92.2024 19.9815C91.3539 20.486 90.6634 21.2281 90.213 22.1203C89.7402 23.1107 89.5108 24.2039 89.5436 25.3055C89.5145 26.4287 89.7572 27.5419 90.249 28.5463C90.7 29.435 91.399 30.1666 92.257 30.6481C93.2199 31.1581 94.2936 31.4098 95.3774 31.3796C96.2852 31.3972 97.1877 31.2369 98.0367 30.9074C98.7373 30.622 99.3589 30.1641 99.8454 29.5741C100.296 29.0457 100.607 28.4082 100.75 27.7222C100.755 27.7007 100.756 27.6782 100.752 27.6564C100.747 27.6346 100.738 27.614 100.726 27.5962C100.712 27.5784 100.696 27.5639 100.676 27.5536C100.657 27.5434 100.636 27.5377 100.614 27.537L97.4124 27.4444C97.326 27.6962 97.1797 27.9221 96.9874 28.1018C96.7929 28.2869 96.5613 28.426 96.309 28.5092C96.017 28.6067 95.7112 28.6537 95.4044 28.6481C94.9794 28.6578 94.5591 28.5558 94.1834 28.3518C93.85 28.151 93.5776 27.8593 93.3964 27.5092C93.2061 27.1151 93.1102 26.6803 93.116 26.2407V26.1481L100.859 26.1666ZM94.2464 22.2222C94.5851 22.0342 94.965 21.9385 95.3503 21.9444C95.7245 21.9347 96.0954 22.024 96.4267 22.2037C96.7335 22.3749 96.9895 22.6276 97.1681 22.9352C97.3504 23.2625 97.4474 23.6325 97.4484 24.0092H93.1611C93.1743 23.6463 93.2771 23.2927 93.46 22.9815C93.6497 22.6598 93.9216 22.3972 94.2464 22.2222Z" fill="#224875"/>
<path d="M102.089 34.6388C102.052 34.6365 102.017 34.6198 101.992 34.5923C101.967 34.5648 101.953 34.5284 101.953 34.4907V28.2592H102.857C103.151 28.0912 103.374 27.8173 103.482 27.4907C103.651 27.0545 103.775 26.6014 103.852 26.1388C103.943 25.6296 104.015 25.0925 104.06 24.5277C104.106 23.9629 104.151 23.4351 104.196 22.9444L104.458 19.4907C104.458 19.4724 104.462 19.4544 104.469 19.4375C104.476 19.4207 104.485 19.4054 104.498 19.3925C104.511 19.3796 104.526 19.3694 104.542 19.3624C104.558 19.3554 104.576 19.3518 104.594 19.3518H113.639C113.677 19.3518 113.714 19.3674 113.741 19.3952C113.768 19.423 113.783 19.4606 113.783 19.4999V28.111C113.783 28.1503 113.799 28.188 113.826 28.2158C113.853 28.2436 113.89 28.2592 113.928 28.2592H115.448C115.484 28.2616 115.519 28.2782 115.544 28.3057C115.57 28.3333 115.584 28.3696 115.584 28.4074V34.4907C115.584 34.5284 115.57 34.5648 115.544 34.5923C115.519 34.6198 115.484 34.6365 115.448 34.6388H112.246C112.208 34.6388 112.171 34.6232 112.144 34.5954C112.117 34.5676 112.101 34.53 112.101 34.4907V31.3055C112.101 31.2662 112.086 31.2285 112.059 31.2007C112.032 31.173 111.995 31.1573 111.957 31.1573H105.688C105.652 31.1597 105.617 31.1763 105.592 31.2039C105.567 31.2314 105.553 31.2678 105.553 31.3055V34.4907C105.553 34.53 105.538 34.5676 105.51 34.5954C105.483 34.6232 105.447 34.6388 105.408 34.6388H102.089ZM106.611 28.2592H110.229C110.268 28.2592 110.304 28.2436 110.331 28.2158C110.358 28.188 110.374 28.1503 110.374 28.111V22.2962C110.374 22.2569 110.358 22.2192 110.331 22.1915C110.304 22.1637 110.268 22.1481 110.229 22.1481H107.516L107.461 22.9444C107.412 24.015 107.3 25.0817 107.127 26.1388C107.029 26.8063 106.828 27.4535 106.53 28.0555C106.519 28.0745 106.513 28.0957 106.512 28.1175C106.512 28.1393 106.516 28.161 106.525 28.1808C106.534 28.2006 106.547 28.218 106.563 28.2317C106.58 28.2453 106.599 28.2547 106.62 28.2592H106.611Z" fill="#224875"/>
<path d="M120.884 25.9907L124.366 19.4444C124.379 19.4217 124.397 19.4029 124.419 19.3898C124.442 19.3768 124.467 19.3701 124.493 19.3703H127.794C127.832 19.3703 127.869 19.3859 127.896 19.4137C127.923 19.4415 127.939 19.4791 127.939 19.5184V31.0092C127.939 31.0485 127.923 31.0862 127.896 31.114C127.869 31.1417 127.832 31.1573 127.794 31.1573H124.601C124.564 31.155 124.53 31.1383 124.505 31.1108C124.479 31.0833 124.466 31.047 124.466 31.0092V24.5277C124.463 24.5071 124.455 24.4876 124.441 24.472C124.428 24.4564 124.41 24.4453 124.391 24.4403C124.371 24.4352 124.35 24.4365 124.331 24.4438C124.312 24.4512 124.296 24.4643 124.284 24.4814L120.821 31.037C120.808 31.0604 120.79 31.0798 120.768 31.0929C120.745 31.106 120.719 31.1124 120.694 31.1111H117.392C117.354 31.1111 117.317 31.0954 117.29 31.0677C117.263 31.0399 117.248 31.0022 117.248 30.9629V19.4999C117.248 19.4606 117.263 19.423 117.29 19.3952C117.317 19.3674 117.354 19.3518 117.392 19.3518H120.576C120.614 19.3518 120.651 19.3674 120.678 19.3952C120.706 19.423 120.721 19.4606 120.721 19.4999V25.9814C120.727 25.9975 120.738 26.0114 120.752 26.0215C120.766 26.0316 120.782 26.0375 120.799 26.0385C120.816 26.0395 120.833 26.0355 120.848 26.027C120.863 26.0186 120.876 26.006 120.884 25.9907Z" fill="#224875"/>
<path d="M129.675 22.0833V19.4999C129.675 19.4606 129.69 19.423 129.717 19.3952C129.745 19.3674 129.781 19.3518 129.82 19.3518H140.348C140.386 19.3518 140.423 19.3674 140.45 19.3952C140.478 19.423 140.493 19.4606 140.493 19.4999V22.0833C140.493 22.1226 140.478 22.1602 140.45 22.1881C140.423 22.2158 140.386 22.2314 140.348 22.2314H136.947C136.91 22.2314 136.875 22.2457 136.848 22.2715C136.821 22.2973 136.805 22.3326 136.802 22.3703V31.0092C136.802 31.0485 136.787 31.0862 136.76 31.114C136.733 31.1417 136.696 31.1573 136.658 31.1573H133.465C133.426 31.1573 133.39 31.1417 133.362 31.114C133.335 31.0862 133.32 31.0485 133.32 31.0092V22.3703C133.318 22.3326 133.301 22.2973 133.275 22.2715C133.248 22.2457 133.212 22.2314 133.175 22.2314H129.82C129.801 22.2314 129.782 22.2276 129.764 22.2202C129.747 22.2127 129.731 22.2018 129.717 22.1881C129.704 22.1743 129.693 22.1579 129.686 22.1399C129.679 22.122 129.675 22.1027 129.675 22.0833Z" fill="#224875"/>
<path d="M154.775 15.5648V31.0092C154.775 31.0485 154.759 31.0862 154.732 31.114C154.705 31.1418 154.668 31.1574 154.63 31.1574H152.604C152.565 31.1574 152.529 31.1418 152.501 31.114C152.474 31.0862 152.459 31.0485 152.459 31.0092V17.5926C152.459 17.5533 152.444 17.5156 152.417 17.4878C152.389 17.46 152.353 17.4444 152.314 17.4444H145.368C145.329 17.4444 145.293 17.46 145.266 17.4878C145.239 17.5156 145.223 17.5533 145.223 17.5926V31.0092C145.223 31.0485 145.208 31.0862 145.181 31.114C145.154 31.1418 145.117 31.1574 145.079 31.1574H143.053C143.015 31.155 142.981 31.1384 142.956 31.1108C142.931 31.0833 142.917 31.0469 142.917 31.0092V15.5648C142.917 15.5271 142.931 15.4907 142.956 15.4632C142.981 15.4356 143.015 15.419 143.053 15.4166H154.666C154.698 15.4251 154.726 15.4443 154.745 15.4712C154.765 15.4981 154.776 15.5311 154.775 15.5648Z" fill="#F48432"/>
<path d="M161.495 31.4165C160.813 31.4272 160.137 31.285 159.514 30.9999C158.941 30.7404 158.454 30.3157 158.112 29.7777C157.754 29.1935 157.574 28.5132 157.597 27.8239C157.577 27.2507 157.704 26.6822 157.967 26.1758C158.215 25.7507 158.568 25.3996 158.989 25.1573C159.433 24.8958 159.911 24.7024 160.41 24.5832C160.941 24.4591 161.478 24.3633 162.019 24.2962L163.711 24.074C164.026 24.0449 164.333 23.9537 164.615 23.8055C164.714 23.7429 164.794 23.6536 164.847 23.5474C164.9 23.4413 164.923 23.3223 164.914 23.2036C164.932 22.9179 164.892 22.6316 164.797 22.3624C164.702 22.0931 164.554 21.8468 164.362 21.6388C164.137 21.4399 163.876 21.2885 163.593 21.1931C163.311 21.0978 163.012 21.0604 162.716 21.0832C162.073 21.0425 161.436 21.2252 160.907 21.6017C160.545 21.8677 160.253 22.2207 160.057 22.6295C160.043 22.658 160.021 22.6808 159.993 22.6942C159.964 22.7077 159.933 22.711 159.903 22.7036L158.094 22.2777C158.073 22.2727 158.054 22.2632 158.037 22.2497C158.021 22.2362 158.007 22.2191 157.997 22.1997C157.988 22.1802 157.983 22.1589 157.982 22.1372C157.982 22.1154 157.986 22.0938 157.995 22.074C158.212 21.4712 158.569 20.9312 159.034 20.4999C159.513 20.055 160.081 19.7231 160.699 19.5277C161.345 19.3296 162.015 19.2297 162.688 19.2313C163.181 19.2362 163.672 19.2889 164.154 19.3887C164.672 19.4985 165.166 19.7058 165.61 19.9999C166.082 20.3073 166.469 20.7348 166.731 21.2406C167.045 21.8933 167.194 22.6158 167.166 23.3425V31.0369C167.166 31.0762 167.151 31.1139 167.124 31.1417C167.096 31.1695 167.06 31.185 167.021 31.185H165.112C165.074 31.185 165.038 31.1695 165.01 31.1417C164.983 31.1139 164.968 31.0762 164.968 31.0369V29.5462H164.887C164.712 29.87 164.49 30.1637 164.226 30.4166C163.903 30.7262 163.525 30.9711 163.114 31.1388C162.596 31.3329 162.047 31.4271 161.495 31.4165ZM161.983 29.5647C162.537 29.5788 163.085 29.4481 163.575 29.1851C164.003 28.9653 164.363 28.6289 164.615 28.2128C164.848 27.8157 164.97 27.3611 164.968 26.898V25.3795C164.834 25.4897 164.675 25.5659 164.507 25.6017C164.252 25.6794 163.992 25.7382 163.729 25.7776L162.879 25.9165L162.191 26.0091C161.783 26.0557 161.383 26.152 160.997 26.2962C160.654 26.3987 160.343 26.5901 160.093 26.8517C159.873 27.1318 159.761 27.4839 159.776 27.8425C159.763 28.093 159.812 28.343 159.919 28.5684C160.027 28.7937 160.19 28.987 160.391 29.1295C160.864 29.4432 161.42 29.5986 161.983 29.574V29.5647Z" fill="#F48432"/>
<path d="M170.169 35.4351V19.4999C170.169 19.4606 170.184 19.4229 170.211 19.3951C170.238 19.3673 170.275 19.3518 170.313 19.3518H172.222C172.26 19.3518 172.297 19.3673 172.324 19.3951C172.351 19.4229 172.366 19.4606 172.366 19.4999V21.2962H172.548C172.714 20.9964 172.904 20.7114 173.117 20.4444C173.393 20.0907 173.738 19.8005 174.13 19.5925C174.668 19.3281 175.262 19.2041 175.858 19.2314C176.741 19.2174 177.609 19.4685 178.354 19.9536C179.111 20.4648 179.707 21.188 180.073 22.0369C180.522 23.0636 180.739 24.181 180.706 25.3055C180.736 26.4317 180.522 27.5509 180.082 28.5833C179.714 29.4357 179.118 30.1643 178.363 30.6851C177.628 31.1781 176.764 31.433 175.885 31.4165C175.292 31.4424 174.702 31.3184 174.167 31.0555C173.769 30.8476 173.415 30.5612 173.126 30.2128C172.911 29.9426 172.717 29.6546 172.548 29.3517H172.412V35.4628C172.412 35.5021 172.397 35.5398 172.37 35.5676C172.342 35.5954 172.306 35.611 172.267 35.611H170.313C170.292 35.6114 170.271 35.6069 170.251 35.5977C170.231 35.5886 170.214 35.5751 170.2 35.5583C170.186 35.5415 170.176 35.5217 170.171 35.5004C170.166 35.479 170.165 35.4567 170.169 35.4351ZM172.366 25.2499C172.352 25.9913 172.472 26.7289 172.719 27.4258C172.918 28.0027 173.272 28.51 173.741 28.8888C174.213 29.249 174.79 29.435 175.379 29.4165C175.984 29.4359 176.577 29.2431 177.061 28.8702C177.532 28.4786 177.887 27.9587 178.083 27.3703C178.327 26.6916 178.446 25.9729 178.436 25.2499C178.445 24.5339 178.328 23.822 178.092 23.148C177.895 22.5702 177.54 22.0624 177.07 21.6851C176.579 21.3387 175.997 21.1531 175.401 21.1531C174.805 21.1531 174.223 21.3387 173.732 21.6851C173.278 22.068 172.939 22.5754 172.755 23.148C172.505 23.8228 172.374 24.5375 172.366 25.2592V25.2499Z" fill="#F48432"/>
<path d="M182.569 21.1944V19.4999C182.569 19.4606 182.584 19.423 182.611 19.3952C182.639 19.3674 182.676 19.3518 182.714 19.3518H192.156C192.195 19.3518 192.232 19.3674 192.259 19.3952C192.286 19.423 192.301 19.4606 192.301 19.4999V21.1944C192.299 21.232 192.283 21.2674 192.256 21.2932C192.229 21.319 192.194 21.3333 192.156 21.3333H188.683C188.645 21.3333 188.608 21.3489 188.581 21.3767C188.554 21.4045 188.538 21.4421 188.538 21.4814V31.0092C188.538 31.0485 188.524 31.0862 188.496 31.114C188.469 31.1417 188.433 31.1573 188.394 31.1573H186.494C186.456 31.1573 186.419 31.1417 186.392 31.114C186.365 31.0862 186.35 31.0485 186.35 31.0092V21.4814C186.35 21.4421 186.334 21.4045 186.307 21.3767C186.28 21.3489 186.243 21.3333 186.205 21.3333H182.705C182.669 21.3311 182.636 21.3157 182.611 21.2902C182.586 21.2646 182.571 21.2305 182.569 21.1944Z" fill="#F48432"/>
<path d="M203.915 19.3518H202.006C201.968 19.3518 201.931 19.3674 201.904 19.3952C201.877 19.423 201.862 19.4606 201.862 19.4999V24.2685H196.869V19.4999C196.869 19.4606 196.854 19.423 196.826 19.3952C196.799 19.3674 196.762 19.3518 196.724 19.3518H194.816C194.777 19.3518 194.741 19.3674 194.714 19.3952C194.687 19.423 194.671 19.4606 194.671 19.4999V31.0092C194.671 31.0485 194.687 31.0862 194.714 31.114C194.741 31.1417 194.777 31.1573 194.816 31.1573H196.724C196.762 31.1573 196.799 31.1417 196.826 31.114C196.854 31.0862 196.869 31.0485 196.869 31.0092V26.25H201.862V31.0092C201.862 31.0485 201.877 31.0862 201.904 31.114C201.931 31.1417 201.968 31.1573 202.006 31.1573H203.915C203.953 31.1573 203.99 31.1417 204.017 31.114C204.044 31.0862 204.06 31.0485 204.06 31.0092V19.4999C204.06 19.4606 204.044 19.423 204.017 19.3952C203.99 19.3674 203.953 19.3518 203.915 19.3518Z" fill="#F48432"/>
<path d="M216.966 25.1295C216.99 24.2008 216.849 23.2754 216.55 22.398C216.307 21.7009 215.914 21.0682 215.402 20.5462C214.93 20.0867 214.369 19.7335 213.755 19.5092C213.149 19.2909 212.509 19.1813 211.865 19.1851C210.878 19.1621 209.905 19.4288 209.062 19.9536C208.252 20.4803 207.606 21.2318 207.198 22.1203C206.736 23.1176 206.507 24.2112 206.529 25.3147C206.506 26.4213 206.735 27.5182 207.198 28.5184C207.615 29.3949 208.272 30.1283 209.089 30.6295C209.98 31.1488 210.994 31.4082 212.019 31.3795C212.787 31.3897 213.551 31.2547 214.271 30.9814C214.891 30.7408 215.451 30.3611 215.908 29.8703C216.322 29.4439 216.632 28.9237 216.813 28.3518C216.818 28.3311 216.819 28.3095 216.816 28.2883C216.813 28.2671 216.806 28.2468 216.795 28.2286C216.784 28.2104 216.769 28.1947 216.752 28.1825C216.735 28.1702 216.716 28.1616 216.695 28.1573L214.886 27.8147C214.854 27.8104 214.822 27.8171 214.794 27.8339C214.766 27.8507 214.744 27.8765 214.733 27.9073C214.605 28.2125 214.421 28.4893 214.19 28.7221C213.936 28.98 213.626 29.1734 213.285 29.2869C212.914 29.4211 212.522 29.4869 212.127 29.4814C211.527 29.4951 210.934 29.3449 210.409 29.0462C209.879 28.7666 209.448 28.3226 209.179 27.7777C208.918 27.1966 208.783 26.5652 208.781 25.9258H216.921L216.966 25.1295ZM214.615 24.2036H208.79C208.814 23.7079 208.937 23.2226 209.152 22.7777C209.4 22.2806 209.771 21.859 210.228 21.5555C210.719 21.2351 211.292 21.0708 211.874 21.0833C212.392 21.0659 212.905 21.1982 213.353 21.4652C213.8 21.7321 214.166 22.1228 214.407 22.5925C214.627 23.0451 214.751 23.5408 214.769 24.0462C214.77 24.0681 214.767 24.09 214.76 24.1107C214.753 24.1314 214.742 24.1505 214.727 24.1668C214.713 24.1832 214.696 24.1965 214.676 24.206C214.657 24.2155 214.636 24.2209 214.615 24.2221V24.2036Z" fill="#F48432"/>
<path d="M219.463 35.4351V19.4999C219.463 19.4606 219.478 19.4229 219.505 19.3951C219.532 19.3673 219.569 19.3518 219.608 19.3518H221.516C221.554 19.3518 221.591 19.3673 221.618 19.3951C221.645 19.4229 221.661 19.4606 221.661 19.4999V21.2962H221.851C222.014 20.9963 222.201 20.7113 222.412 20.4444C222.69 20.0905 223.039 19.8004 223.433 19.5925C223.971 19.3281 224.565 19.2041 225.161 19.2314C226.041 19.2192 226.906 19.4702 227.649 19.9536C228.405 20.467 229.004 21.1893 229.376 22.0369C229.818 23.0658 230.031 24.1821 230 25.3055C230.03 26.4317 229.817 27.5509 229.376 28.5833C229.008 29.4331 228.417 30.1611 227.667 30.6851C226.928 31.1783 226.061 31.4332 225.179 31.4165C224.586 31.4401 223.997 31.3162 223.46 31.0555C223.063 30.8476 222.709 30.5612 222.421 30.2128C222.207 29.9428 222.017 29.6547 221.851 29.3517H221.715V35.4628C221.715 35.5021 221.7 35.5398 221.673 35.5676C221.645 35.5954 221.609 35.611 221.57 35.611H219.608C219.586 35.6114 219.565 35.6069 219.545 35.5977C219.525 35.5886 219.508 35.5751 219.494 35.5583C219.48 35.5415 219.47 35.5217 219.465 35.5004C219.46 35.479 219.459 35.4567 219.463 35.4351ZM221.67 25.2499C221.655 25.9913 221.775 26.7289 222.023 27.4258C222.218 28.0046 222.573 28.5129 223.044 28.8888C223.513 29.249 224.087 29.4351 224.672 29.4165C225.278 29.4389 225.873 29.2458 226.355 28.8702C226.827 28.4768 227.184 27.9578 227.386 27.3703C227.622 26.6899 227.739 25.9719 227.73 25.2499C227.742 24.5344 227.628 23.8226 227.395 23.148C227.195 22.5719 226.841 22.065 226.373 21.6851C225.881 21.3379 225.297 21.152 224.7 21.152C224.102 21.152 223.519 21.3379 223.026 21.6851C222.558 22.0623 222.206 22.5704 222.014 23.148C221.775 23.8246 221.658 24.5399 221.67 25.2592V25.2499Z" fill="#F48432"/>
<path d="M48.8871 47.7037L32.8597 26.2963L29.4498 31.2222C27.9032 33.287 24.9274 34.074 22.9014 34.1111L8.77342 34.4537H8.27595H8.15836C6.34544 34.5837 4.62844 35.3365 3.28561 36.5902C1.94278 37.8438 1.05276 39.5249 0.759738 41.3611C0.759738 41.5278 0.705465 41.6852 0.687378 41.8426V41.9167C0.687378 42.0555 0.687378 42.1852 0.687378 42.3241V42.713V43.3426C0.707119 43.8796 0.779844 44.4131 0.904452 44.9352V45.037V45.1296C1.36892 46.7557 2.31749 48.1929 3.61789 49.2407C3.71437 49.3018 3.81401 49.3574 3.91637 49.4074C5.26629 50.4128 6.8871 50.9659 8.55635 50.9907H47.5394C47.8935 50.9853 48.2381 50.8736 48.5308 50.6695C48.8234 50.4654 49.051 50.1778 49.1855 49.8426C49.3456 49.4953 49.4027 49.1075 49.3497 48.7273C49.2966 48.3471 49.1358 47.9912 48.8871 47.7037Z" fill="#F48432"/>
<path d="M0 38.2499C0.656735 36.897 1.60835 35.7166 2.78139 34.8C3.95443 33.8833 5.31756 33.2547 6.7655 32.9629C6.97356 32.9166 7.18156 32.8796 7.39863 32.8518C7.94205 32.7532 8.49288 32.7036 9.04478 32.7037H9.56938L22.8833 32.4073C24.6923 32.4073 27.0077 31.6759 28.1022 30.2222L32.1995 24.2962L32.317 24.1295L32.4075 24L32.8235 23.4073L47.5665 3.18513C47.7795 2.87956 47.905 2.51926 47.929 2.14469C47.953 1.77013 47.8744 1.39615 47.7022 1.06476C47.5512 0.750505 47.3185 0.484907 47.0297 0.297079C46.7409 0.109252 46.4072 0.0064483 46.0651 -6.05455e-05H3.5546C2.69845 -0.0730237 1.84824 0.198545 1.18453 0.756974C0.52082 1.3154 0.0958952 2.11669 0 2.99068C0 4.69438 0 5.69439 0 5.70363V38.2499Z" fill="#224875"/>
</g>
</g>
<defs>
<clipPath id="clip0_31_606">
<rect width="230" height="51" fill="white"/>
</clipPath>
</defs>
</svg>
