<svg width="40" height="40" viewBox="0 0 40 40" fill="none" xmlns="http://www.w3.org/2000/svg">
<path fill-rule="evenodd" clip-rule="evenodd" d="M20.0001 4.33325C15.95 4.33325 12.6667 7.6165 12.6667 11.6666C12.6667 15.7167 15.95 18.9999 20.0001 18.9999C24.0502 18.9999 27.3334 15.7167 27.3334 11.6666C27.3334 7.6165 24.0502 4.33325 20.0001 4.33325ZM10.6667 11.6666C10.6667 6.51193 14.8454 2.33325 20.0001 2.33325C25.1547 2.33325 29.3334 6.51193 29.3334 11.6666C29.3334 16.8212 25.1547 20.9999 20.0001 20.9999C14.8454 20.9999 10.6667 16.8212 10.6667 11.6666Z" fill="#F48432"/>
<path fill-rule="evenodd" clip-rule="evenodd" d="M20 26C12.4505 26 6.68335 30.9511 6.68335 36.6667C6.68335 37.219 6.23563 37.6667 5.68335 37.6667C5.13106 37.6667 4.68335 37.219 4.68335 36.6667C4.68335 29.4822 11.7495 24 20 24C21.69 24 23.3295 24.2288 24.866 24.6527C25.3984 24.7995 25.7109 25.3502 25.564 25.8826C25.4172 26.415 24.8665 26.7275 24.3341 26.5807C22.9706 26.2045 21.51 26 20 26Z" fill="#F48432"/>
<path fill-rule="evenodd" clip-rule="evenodd" d="M29.9999 24.3333C28.6712 24.3333 27.4387 24.7991 26.4566 25.5819L26.4548 25.5833L26.4548 25.5833C25.1546 26.615 24.3333 28.2126 24.3333 29.9999C24.3333 31.0624 24.6306 32.0643 25.1511 32.9084L25.1595 32.922L25.1593 32.922C26.1358 34.5635 27.9321 35.6666 29.9999 35.6666C31.4335 35.6666 32.7292 35.1432 33.7143 34.2566C33.7229 34.2488 33.7317 34.2412 33.7406 34.2337C34.1679 33.8754 34.5435 33.4311 34.8362 32.9294L34.8485 32.9082L34.8488 32.9084C35.3692 32.0643 35.6666 31.0624 35.6666 29.9999C35.6666 26.8689 33.131 24.3333 29.9999 24.3333ZM25.2099 24.018C26.5278 22.9675 28.1953 22.3333 29.9999 22.3333C34.2355 22.3333 37.6666 25.7643 37.6666 29.9999C37.6666 31.4331 37.2664 32.794 36.5575 33.9477C36.1541 34.6365 35.6366 35.2512 35.0393 35.7548C33.6926 36.9612 31.9268 37.6666 29.9999 37.6666C27.204 37.6666 24.769 36.1727 23.4445 33.9513C22.7343 32.7968 22.3333 31.4346 22.3333 29.9999C22.3333 27.5872 23.4452 25.4182 25.2117 24.0166L25.8332 24.7999L25.2099 24.018Z" fill="#F48432"/>
<path fill-rule="evenodd" clip-rule="evenodd" d="M33.334 27.6877C33.709 28.0932 33.6843 28.7259 33.2789 29.1009L29.7289 32.3841C29.3346 32.7488 28.7226 32.7369 28.3428 32.3571L26.6928 30.7071C26.3023 30.3166 26.3023 29.6834 26.6928 29.2929C27.0833 28.9024 27.7165 28.9024 28.107 29.2929L29.0769 30.2628L31.9209 27.6326C32.3264 27.2576 32.959 27.2823 33.334 27.6877Z" fill="#F48432"/>
</svg>
