<svg width="40" height="40" viewBox="0 0 40 40" fill="none" xmlns="http://www.w3.org/2000/svg">
<path fill-rule="evenodd" clip-rule="evenodd" d="M30.029 4.33326C28.7269 4.33562 27.6667 5.39342 27.6667 6.68325V17.3333H32.3667C33.4693 17.3333 34.2721 16.9886 34.7971 16.4636C35.3221 15.9386 35.6667 15.1358 35.6667 14.0332V9.99992C35.6667 8.44614 35.0324 7.02856 34.0072 5.98791C32.9911 4.97311 31.5769 4.34872 30.029 4.33326ZM25.6667 6.68325C25.6667 4.27452 27.6376 2.33325 30.0334 2.33325H30.0426L30.0426 2.33329C32.1249 2.3524 34.0411 3.19343 35.4239 4.57614L35.4287 4.58102L35.4287 4.58104C36.8021 5.97349 37.6667 7.88825 37.6667 9.99992V14.0332C37.6667 15.564 37.178 16.9112 36.2114 17.8779C35.2447 18.8445 33.8975 19.3333 32.3667 19.3333H26.6667C26.1145 19.3333 25.6667 18.8855 25.6667 18.3333V6.68325Z" fill="#F48432"/>
<path fill-rule="evenodd" clip-rule="evenodd" d="M4.03473 4.63175C5.31611 3.14791 7.2952 2.33325 9.99992 2.33325H29.9999C30.5522 2.33325 30.9999 2.78097 30.9999 3.33325C30.9999 3.88554 30.5522 4.33325 29.9999 4.33325C28.7189 4.33325 27.6666 5.38554 27.6666 6.66659V34.9999C27.6666 37.1956 25.1579 38.4384 23.4038 37.1362L23.4007 37.1338L20.5402 34.9926C20.2952 34.8042 19.9247 34.8227 19.6904 35.057L16.8904 37.857C15.8498 38.8976 14.15 38.8976 13.1095 37.857L10.3428 35.0737C10.3426 35.0734 10.3431 35.074 10.3428 35.0737C10.0905 34.8221 9.71343 34.8023 9.44992 34.9999L6.60378 37.1304C6.60295 37.131 6.60212 37.1316 6.6013 37.1322C4.83705 38.4658 2.33325 37.2012 2.33325 34.9999V9.99992C2.33325 8.02776 2.77703 6.08817 4.03473 4.63175ZM26.3518 4.33325H9.99992C7.70464 4.33325 6.35039 5.01026 5.54844 5.93892C4.72281 6.895 4.33325 8.28874 4.33325 9.99992V34.9999C4.33325 35.5642 4.96045 35.8662 5.39606 35.5362L5.40067 35.5327L8.24992 33.3999C9.31948 32.5977 10.8094 32.7118 11.757 33.6595L11.7591 33.6616L14.5237 36.4428C14.5235 36.4427 14.5238 36.443 14.5237 36.4428C14.7832 36.7018 15.2168 36.7021 15.4761 36.4428L18.2761 33.6428C19.2067 32.7122 20.6991 32.5961 21.7538 33.4028L24.596 35.5303C24.5956 35.53 24.5965 35.5307 24.596 35.5303C25.0419 35.8598 25.6666 35.537 25.6666 34.9999V6.66659C25.6666 5.8088 25.9184 5.00762 26.3518 4.33325Z" fill="#F48432"/>
<path fill-rule="evenodd" clip-rule="evenodd" d="M14 21.6833C14 21.1311 14.4477 20.6833 15 20.6833H20C20.5523 20.6833 21 21.1311 21 21.6833C21 22.2356 20.5523 22.6833 20 22.6833H15C14.4477 22.6833 14 22.2356 14 21.6833Z" fill="#F48432"/>
<path fill-rule="evenodd" clip-rule="evenodd" d="M14 15.0166C14 14.4643 14.4477 14.0166 15 14.0166H20C20.5523 14.0166 21 14.4643 21 15.0166C21 15.5689 20.5523 16.0166 20 16.0166H15C14.4477 16.0166 14 15.5689 14 15.0166Z" fill="#F48432"/>
<path fill-rule="evenodd" clip-rule="evenodd" d="M8.99268 21.6667C8.99268 21.1145 9.44039 20.6667 9.99268 20.6667H10.0076C10.5599 20.6667 11.0076 21.1145 11.0076 21.6667C11.0076 22.219 10.5599 22.6667 10.0076 22.6667H9.99268C9.44039 22.6667 8.99268 22.219 8.99268 21.6667Z" fill="#F48432"/>
<path fill-rule="evenodd" clip-rule="evenodd" d="M8.99268 15C8.99268 14.4477 9.44039 14 9.99268 14H10.0076C10.5599 14 11.0076 14.4477 11.0076 15C11.0076 15.5523 10.5599 16 10.0076 16H9.99268C9.44039 16 8.99268 15.5523 8.99268 15Z" fill="#F48432"/>
</svg>
