<svg width="40" height="40" viewBox="0 0 40 40" fill="none" xmlns="http://www.w3.org/2000/svg">
<path fill-rule="evenodd" clip-rule="evenodd" d="M23.3003 3.64055C25.2307 4.29406 26.5461 6.41355 26.1168 8.43343L25.2892 13.7303C25.2141 14.274 25.5592 14.5834 25.9667 14.5834H32.6333C34.1539 14.5834 35.4736 15.1986 36.2717 16.2819C37.0723 17.3683 37.256 18.8017 36.7462 20.2404L32.7607 32.3632C32.4362 33.6173 31.6126 34.6639 30.6197 35.3904C29.6176 36.1236 28.373 36.5834 27.1333 36.5834H20.8C20.2034 36.5834 19.486 36.4861 18.8169 36.2949C18.1934 36.1168 17.4853 35.8217 16.977 35.3399L11.8545 31.3741L13.0788 29.7927L18.2956 33.8315L18.3404 33.8763C18.496 34.0318 18.8443 34.2227 19.3664 34.3719C19.864 34.514 20.3966 34.5834 20.8 34.5834H27.1333C27.8937 34.5834 28.7324 34.2932 29.4387 33.7764C30.1442 33.2601 30.6475 32.5702 30.8299 31.8409L30.8387 31.8056L34.858 19.5803C35.1759 18.69 35.0254 17.962 34.6616 17.4683C34.2931 16.9681 33.6128 16.5834 32.6333 16.5834H25.9667C24.3755 16.5834 23.0549 15.2282 23.3101 13.442L23.3119 13.429L24.1502 8.06422L24.1572 8.03313C24.3714 7.0691 23.6998 5.88187 22.6504 5.53208L22.6329 5.52622L22.6155 5.51972C22.2116 5.36824 21.7059 5.3789 21.2084 5.54991C20.7042 5.72324 20.3199 6.02299 20.1321 6.30476L20.13 6.3079L13.2966 16.4746L11.6367 15.3589L18.468 5.19536C18.4683 5.19478 18.4687 5.1942 18.4691 5.19362C18.948 4.47627 19.7298 3.94331 20.5583 3.65854C21.3888 3.37303 22.3759 3.29947 23.3003 3.64055Z" fill="#F48432"/>
<path fill-rule="evenodd" clip-rule="evenodd" d="M5.4365 12.5264C5.19655 12.7479 4.96655 13.1959 4.96655 14.2499V30.5833C4.96655 31.6372 5.19655 32.0853 5.4365 32.3068C5.69611 32.5464 6.20986 32.7499 7.29989 32.7499H8.96655C10.0566 32.7499 10.5703 32.5464 10.8299 32.3068C11.0699 32.0853 11.2999 31.6372 11.2999 30.5833V14.2499C11.2999 13.1959 11.0699 12.7479 10.8299 12.5264C10.5703 12.2868 10.0566 12.0833 8.96655 12.0833H7.29989C6.20986 12.0833 5.69611 12.2868 5.4365 12.5264ZM4.07994 11.0568C4.90367 10.2964 6.05657 10.0833 7.29989 10.0833H8.96655C10.2099 10.0833 11.3628 10.2964 12.1865 11.0568C13.0299 11.8353 13.2999 12.9706 13.2999 14.2499V30.5833C13.2999 31.8626 13.0299 32.9979 12.1865 33.7764C11.3628 34.5368 10.2099 34.7499 8.96655 34.7499H7.29989C6.05657 34.7499 4.90367 34.5368 4.07994 33.7764C3.23656 32.9979 2.96655 31.8626 2.96655 30.5833V14.2499C2.96655 12.9706 3.23656 11.8353 4.07994 11.0568Z" fill="#F48432"/>
</svg>
