<svg width="40" height="40" viewBox="0 0 40 40" fill="none" xmlns="http://www.w3.org/2000/svg">
<path fill-rule="evenodd" clip-rule="evenodd" d="M2.33325 14.1665C2.33325 13.6142 2.78097 13.1665 3.33325 13.1665H24.1666C24.7189 13.1665 25.1666 13.6142 25.1666 14.1665C25.1666 14.7188 24.7189 15.1665 24.1666 15.1665H3.33325C2.78097 15.1665 2.33325 14.7188 2.33325 14.1665Z" fill="#F48432"/>
<path fill-rule="evenodd" clip-rule="evenodd" d="M9 27.5C9 26.9477 9.44772 26.5 10 26.5H13.3333C13.8856 26.5 14.3333 26.9477 14.3333 27.5C14.3333 28.0523 13.8856 28.5 13.3333 28.5H10C9.44772 28.5 9 28.0523 9 27.5Z" fill="#F48432"/>
<path fill-rule="evenodd" clip-rule="evenodd" d="M16.5 27.5C16.5 26.9477 16.9477 26.5 17.5 26.5H24.1667C24.719 26.5 25.1667 26.9477 25.1667 27.5C25.1667 28.0523 24.719 28.5 24.1667 28.5H17.5C16.9477 28.5 16.5 28.0523 16.5 27.5Z" fill="#F48432"/>
<path fill-rule="evenodd" clip-rule="evenodd" d="M5.5176 8.00918C4.72876 8.78913 4.33325 10.2201 4.33325 13.1502V26.8502C4.33325 29.7803 4.72876 31.2112 5.5176 31.9912C6.31037 32.775 7.76692 33.1668 10.7333 33.1668H29.2666C32.2329 33.1668 33.6895 32.775 34.4822 31.9912C35.2711 31.2112 35.6666 29.7803 35.6666 26.8502V23.3835C35.6666 22.8312 36.1143 22.3835 36.6666 22.3835C37.2189 22.3835 37.6666 22.8312 37.6666 23.3835V26.8502C37.6666 29.7701 37.3204 31.9975 35.8884 33.4133C34.4604 34.8253 32.2169 35.1668 29.2666 35.1668H10.7333C7.78291 35.1668 5.53947 34.8253 4.11141 33.4133C2.67941 31.9975 2.33325 29.7701 2.33325 26.8502V13.1502C2.33325 10.2303 2.67941 8.00286 4.11141 6.58698C5.53947 5.175 7.78291 4.8335 10.7333 4.8335H24.1666C24.7189 4.8335 25.1666 5.28121 25.1666 5.8335C25.1666 6.38578 24.7189 6.8335 24.1666 6.8335H10.7333C7.76692 6.8335 6.31037 7.22533 5.5176 8.00918Z" fill="#F48432"/>
<path fill-rule="evenodd" clip-rule="evenodd" d="M33.3333 4.8335C33.8855 4.8335 34.3333 5.28121 34.3333 5.8335V13.4193L35.9595 11.7931C36.35 11.4025 36.9832 11.4025 37.3737 11.7931C37.7642 12.1836 37.7642 12.8167 37.3737 13.2073L34.0404 16.5406C33.7544 16.8266 33.3242 16.9122 32.9506 16.7574C32.5769 16.6026 32.3333 16.238 32.3333 15.8335V5.8335C32.3333 5.28121 32.781 4.8335 33.3333 4.8335Z" fill="#F48432"/>
<path fill-rule="evenodd" clip-rule="evenodd" d="M29.2929 11.7929C29.6834 11.4024 30.3166 11.4024 30.7071 11.7929L34.0404 15.1262C34.431 15.5168 34.431 16.1499 34.0404 16.5404C33.6499 16.931 33.0167 16.931 32.6262 16.5404L29.2929 13.2071C28.9024 12.8166 28.9024 12.1834 29.2929 11.7929Z" fill="#F48432"/>
</svg>
