<svg width="40" height="40" viewBox="0 0 40 40" fill="none" xmlns="http://www.w3.org/2000/svg">
<path fill-rule="evenodd" clip-rule="evenodd" d="M19.6167 14.8C19.6167 14.2477 20.0644 13.8 20.6167 13.8H29.3667C29.919 13.8 30.3667 14.2477 30.3667 14.8C30.3667 15.3523 29.919 15.8 29.3667 15.8H20.6167C20.0644 15.8 19.6167 15.3523 19.6167 14.8Z" fill="#F48432"/>
<path fill-rule="evenodd" clip-rule="evenodd" d="M16.3404 11.5929C16.7309 11.9834 16.7309 12.6166 16.3404 13.0071L12.5904 16.7571C12.1999 17.1476 11.5667 17.1476 11.1762 16.7571L9.92619 15.5071C9.53567 15.1166 9.53567 14.4834 9.92619 14.0929C10.3167 13.7024 10.9499 13.7024 11.3404 14.0929L11.8833 14.6358L14.9262 11.5929C15.3167 11.2024 15.9499 11.2024 16.3404 11.5929Z" fill="#F48432"/>
<path fill-rule="evenodd" clip-rule="evenodd" d="M19.6167 26.4667C19.6167 25.9144 20.0644 25.4667 20.6167 25.4667H29.3667C29.919 25.4667 30.3667 25.9144 30.3667 26.4667C30.3667 27.019 29.919 27.4667 29.3667 27.4667H20.6167C20.0644 27.4667 19.6167 27.019 19.6167 26.4667Z" fill="#F48432"/>
<path fill-rule="evenodd" clip-rule="evenodd" d="M16.3404 23.2596C16.7309 23.6501 16.7309 24.2833 16.3404 24.6738L12.5904 28.4238C12.1999 28.8143 11.5667 28.8143 11.1762 28.4238L9.92619 27.1738C9.53567 26.7833 9.53567 26.1501 9.92619 25.7596C10.3167 25.369 10.9499 25.369 11.3404 25.7596L11.8833 26.3025L14.9262 23.2596C15.3167 22.869 15.9499 22.869 16.3404 23.2596Z" fill="#F48432"/>
<path fill-rule="evenodd" clip-rule="evenodd" d="M5.33448 5.33457C7.48877 3.18028 10.7346 2.33334 14.9999 2.33334H24.9999C29.2652 2.33334 32.5111 3.18028 34.6654 5.33457C36.8196 7.48886 37.6666 10.7347 37.6666 15V25C37.6666 29.2653 36.8196 32.5112 34.6654 34.6655C32.5111 36.8197 29.2652 37.6667 24.9999 37.6667H14.9999C10.7346 37.6667 7.48877 36.8197 5.33448 34.6655C3.18019 32.5112 2.33325 29.2653 2.33325 25V15C2.33325 10.7347 3.18019 7.48886 5.33448 5.33457ZM6.74869 6.74878C5.15298 8.34449 4.33325 10.932 4.33325 15V25C4.33325 29.068 5.15298 31.6555 6.74869 33.2512C8.3444 34.8469 10.9319 35.6667 14.9999 35.6667H24.9999C29.068 35.6667 31.6554 34.8469 33.2511 33.2512C34.8469 31.6555 35.6666 29.068 35.6666 25V15C35.6666 10.932 34.8469 8.34449 33.2511 6.74878C31.6554 5.15308 29.068 4.33334 24.9999 4.33334H14.9999C10.9319 4.33334 8.3444 5.15308 6.74869 6.74878Z" fill="#F48432"/>
</svg>
