<svg width="41" height="40" viewBox="0 0 41 40" fill="none" xmlns="http://www.w3.org/2000/svg">
<path fill-rule="evenodd" clip-rule="evenodd" d="M17.9119 13.5467C18.1096 13.1216 18.2167 12.6678 18.2167 12.2C18.2167 11.7185 18.0929 11.236 17.9058 10.7971C17.7209 10.3472 17.4636 9.8986 17.1303 9.43523L13.2687 3.99238C12.8608 3.40528 12.3367 2.9964 11.7592 2.72855C11.2008 2.46185 10.5876 2.33334 9.98333 2.33334C8.44405 2.33334 7.03863 2.98605 5.82276 4.17987C4.84379 5.10538 4.12649 6.15671 3.67048 7.31457C3.2208 8.43977 3 9.64914 3 10.9C3 12.7894 3.43626 14.7381 4.27836 16.7381L4.2796 16.741C5.11347 18.7041 6.25301 20.6684 7.65486 22.6173L7.65824 22.6219C9.07236 24.5642 10.6553 26.4192 12.4062 28.187L12.413 28.1939C14.181 29.9449 16.0356 31.5274 17.9935 32.9575C19.948 34.3806 21.9314 35.5207 23.9247 36.37C25.9418 37.2294 27.8919 37.6667 29.75 37.6667C31.0426 37.6667 32.2563 37.4262 33.382 36.9575C34.5509 36.4779 35.5699 35.7349 36.4739 34.7387C37.0271 34.1283 37.4479 33.4777 37.7709 32.7937C38.1163 32.0623 38.2833 31.3 38.2833 30.55C38.2833 29.9302 38.1484 29.3866 37.9451 28.8786L37.9388 28.8628L37.932 28.8473C37.6644 28.2392 37.2338 27.7531 36.6743 27.3646L31.1622 23.4513L31.1456 23.4398C30.6918 23.1312 30.2459 22.8755 29.7953 22.6911C29.325 22.4987 28.8632 22.4 28.4 22.4C27.7895 22.4 27.2374 22.5726 26.7249 22.8788C26.5524 22.9707 26.3826 23.0773 26.2158 23.1963C25.9046 23.4181 25.6033 23.6827 25.312 23.9738L25.3096 23.9762L24.749 24.5294L24.0527 25.2166C24.0273 25.2162 24.0124 25.2148 24.0048 25.2138C23.9767 25.2013 23.9479 25.1881 23.9147 25.1728L23.9042 25.168C23.8707 25.1527 23.8265 25.1324 23.7792 25.1122C23.3034 24.8549 22.6606 24.4093 21.8459 23.72C20.9912 22.9942 20.1463 22.1987 19.2573 21.3263C18.4124 20.4648 17.63 19.6012 16.8931 18.7498C16.211 17.9433 15.7551 17.3086 15.4958 16.8501C15.4766 16.8003 15.4583 16.7569 15.4448 16.7251L15.4396 16.7129L15.4084 16.6384C15.4027 16.6082 15.4007 16.5857 15.4001 16.5633L15.466 16.4949L15.7118 16.2394L16.6475 15.2667C17.0855 14.8277 17.4589 14.364 17.7294 13.8892C17.7968 13.7774 17.8577 13.6631 17.9119 13.5467ZM7.09503 5.73139C6.36949 6.4421 5.85742 7.21871 5.53057 8.04947L5.52849 8.05474C5.17887 8.9288 5 9.88519 5 10.9C5 12.4769 5.36355 14.1611 6.12105 15.9606C6.88681 17.7629 7.94649 19.5973 9.27681 21.4471C10.628 23.3027 12.1433 25.0791 13.8237 26.7762C15.5212 28.457 17.2985 29.9731 19.1725 31.342C21.0178 32.6854 22.8688 33.7461 24.7087 34.53C26.5249 35.3039 28.2081 35.6667 29.75 35.6667C30.7897 35.6667 31.7419 35.4742 32.6154 35.1103L32.6208 35.108C33.4838 34.7543 34.2639 34.1978 34.9923 33.3952C35.4056 32.939 35.7188 32.4555 35.9624 31.9397C36.1837 31.4711 36.2833 31 36.2833 30.55C36.2833 30.242 36.2206 29.9569 36.095 29.6385C35.9959 29.4203 35.829 29.212 35.5308 29.0055L35.5211 28.9987L30.0129 25.0881C29.6369 24.833 29.3187 24.657 29.038 24.5422C28.775 24.4346 28.5701 24.4 28.4 24.4C28.1884 24.4 27.9829 24.4543 27.7366 24.6042L27.7085 24.6213L27.6792 24.6366C27.6312 24.6616 27.5812 24.6903 27.5293 24.7227C27.2992 24.8662 27.0307 25.0835 26.7238 25.3905L26.7191 25.3951L26.2659 25.8423L25.4571 26.6404L25.4542 26.6434C25.094 27.0022 24.6279 27.2167 24.0667 27.2167C23.8392 27.2167 23.5784 27.1911 23.2989 27.0863L23.2773 27.0782L23.2561 27.0692C23.1904 27.041 23.1293 27.013 23.0838 26.9921L23.0708 26.9862C23.0176 26.9618 22.9938 26.9512 22.9786 26.9452L22.9292 26.9254L22.8821 26.9005C22.2282 26.5543 21.449 26.004 20.5528 25.2456C19.6434 24.4736 18.7576 23.6383 17.8495 22.747L17.8362 22.7337C16.9516 21.8321 16.1373 20.9328 15.3772 20.0544L15.3699 20.046C14.6189 19.1584 14.0527 18.3822 13.7054 17.7455L13.6628 17.6674L13.6347 17.5829C13.6321 17.5751 13.626 17.559 13.602 17.5021L13.596 17.4882C13.5752 17.439 13.5444 17.3663 13.5137 17.2845L13.4937 17.2311L13.4799 17.1759C13.4301 16.9769 13.4 16.7781 13.4 16.55C13.4 16.0443 13.5708 15.5691 13.9516 15.1842L14.4347 14.6821L15.2127 13.8734L15.2262 13.8596L15.9961 12.8913L16.0041 12.8772L16.0125 12.8634L16.2167 12.2L16.0578 11.562L15.7622 11.0486L15.5011 10.5953L11.6278 5.13589L10.9006 4.53487L9.98333 4.33334C9.05916 4.33334 8.13391 4.71124 7.21818 5.61266L7.20304 5.62757C7.16653 5.66202 7.13052 5.69662 7.09503 5.73139Z" fill="#F48432"/>
<path fill-rule="evenodd" clip-rule="evenodd" d="M24.6667 9.16669C24.6667 8.6144 25.1145 8.16669 25.6667 8.16669C27.469 8.16669 29.1321 9.29596 30.2822 10.5355C30.9246 11.224 31.4662 11.9945 31.8519 12.7449C32.2275 13.4754 32.5001 14.2736 32.5001 15C32.5001 15.5523 32.0524 16 31.5001 16C30.9478 16 30.5001 15.5523 30.5001 15C30.5001 14.7264 30.381 14.2579 30.0732 13.6593C29.7759 13.081 29.3428 12.4602 28.819 11.899L28.8169 11.8967L28.8169 11.8967C27.8337 10.8367 26.6639 10.1667 25.6667 10.1667C25.1145 10.1667 24.6667 9.71897 24.6667 9.16669Z" fill="#F48432"/>
<path fill-rule="evenodd" clip-rule="evenodd" d="M24.6667 3.33334C24.6667 2.78106 25.1145 2.33334 25.6667 2.33334C32.669 2.33334 38.3334 7.99773 38.3334 15C38.3334 15.5523 37.8857 16 37.3334 16C36.7811 16 36.3334 15.5523 36.3334 15C36.3334 9.1023 31.5645 4.33334 25.6667 4.33334C25.1145 4.33334 24.6667 3.88563 24.6667 3.33334Z" fill="#F48432"/>
</svg>
