<svg width="41" height="40" viewBox="0 0 41 40" fill="none" xmlns="http://www.w3.org/2000/svg">
<path fill-rule="evenodd" clip-rule="evenodd" d="M25.0731 4.89187L9.33798 20.627C9.06904 20.8959 8.88237 21.236 8.79984 21.6072L7.42894 27.7747C7.11128 29.2037 8.38618 30.4786 9.81525 30.161L15.9827 28.7901C16.3539 28.7076 16.694 28.5209 16.9629 28.2519L32.698 12.5168C33.28 11.9349 33.446 11.0558 33.1165 10.3017L32.9128 9.83574C31.9043 7.52792 30.062 5.68566 27.7542 4.67708L27.2882 4.47345C26.5341 4.14388 25.6551 4.30992 25.0731 4.89187ZM16.4166 30.7424C17.1592 30.5774 17.8393 30.204 18.3771 29.6662L34.1123 13.931C35.2762 12.7671 35.6083 11.0091 34.9491 9.50079L34.7455 9.03484C33.5352 6.26545 31.3245 4.05473 28.5551 2.84445L28.0891 2.64082C26.5809 1.98167 24.8228 2.31375 23.6589 3.47766L7.92376 19.2128C7.3859 19.7507 7.01254 20.4307 6.84749 21.1733L5.47659 27.3407C4.84127 30.1988 7.39108 32.7486 10.2492 32.1133L16.4166 30.7424Z" fill="#F48432"/>
<path fill-rule="evenodd" clip-rule="evenodd" d="M19.9961 7.4286C20.5418 7.34358 21.0531 7.71704 21.1381 8.26274C21.7843 12.4102 25.1503 15.5837 29.3336 16.005C29.8831 16.0604 30.2837 16.5507 30.2283 17.1002C30.173 17.6497 29.6827 18.0503 29.1332 17.995C24.0498 17.483 19.9491 13.6231 19.162 8.57062C19.0769 8.02492 19.4504 7.51362 19.9961 7.4286Z" fill="#F48432"/>
<path fill-rule="evenodd" clip-rule="evenodd" d="M4.3335 36.6667C4.3335 36.1144 4.78121 35.6667 5.3335 35.6667H35.3335C35.8858 35.6667 36.3335 36.1144 36.3335 36.6667C36.3335 37.219 35.8858 37.6667 35.3335 37.6667H5.3335C4.78121 37.6667 4.3335 37.219 4.3335 36.6667Z" fill="#F48432"/>
</svg>
