<svg width="40" height="40" viewBox="0 0 40 40" fill="none" xmlns="http://www.w3.org/2000/svg">
<path fill-rule="evenodd" clip-rule="evenodd" d="M2.33325 14.1667C2.33325 13.6144 2.78097 13.1667 3.33325 13.1667H22.4999C23.0522 13.1667 23.4999 13.6144 23.4999 14.1667C23.4999 14.7189 23.0522 15.1667 22.4999 15.1667H3.33325C2.78097 15.1667 2.33325 14.7189 2.33325 14.1667Z" fill="#F48432"/>
<path fill-rule="evenodd" clip-rule="evenodd" d="M9 27.5C9 26.9477 9.44772 26.5 10 26.5H13.3333C13.8856 26.5 14.3333 26.9477 14.3333 27.5C14.3333 28.0523 13.8856 28.5 13.3333 28.5H10C9.44772 28.5 9 28.0523 9 27.5Z" fill="#F48432"/>
<path fill-rule="evenodd" clip-rule="evenodd" d="M16.5 27.5C16.5 26.9477 16.9477 26.5 17.5 26.5H24.1667C24.719 26.5 25.1667 26.9477 25.1667 27.5C25.1667 28.0523 24.719 28.5 24.1667 28.5H17.5C16.9477 28.5 16.5 28.0523 16.5 27.5Z" fill="#F48432"/>
<path fill-rule="evenodd" clip-rule="evenodd" d="M5.5176 8.00902C4.72876 8.78898 4.33325 10.2199 4.33325 13.15V26.85C4.33325 29.7801 4.72876 31.211 5.5176 31.991C6.31037 32.7748 7.76692 33.1667 10.7333 33.1667H29.2666C32.2329 33.1667 33.6895 32.7748 34.4822 31.991C35.2711 31.211 35.6666 29.7801 35.6666 26.85V20.05C35.6666 19.4977 36.1143 19.05 36.6666 19.05C37.2189 19.05 37.6666 19.4977 37.6666 20.05V26.85C37.6666 29.7699 37.3204 31.9973 35.8884 33.4132C34.4604 34.8252 32.2169 35.1667 29.2666 35.1667H10.7333C7.78291 35.1667 5.53947 34.8252 4.11141 33.4132C2.67941 31.9973 2.33325 29.7699 2.33325 26.85V13.15C2.33325 10.2301 2.67941 8.00271 4.11141 6.58683C5.53947 5.17484 7.78291 4.83334 10.7333 4.83334H22.4999C23.0522 4.83334 23.4999 5.28106 23.4999 5.83334C23.4999 6.38563 23.0522 6.83334 22.4999 6.83334H10.7333C7.76692 6.83334 6.31037 7.22518 5.5176 8.00902Z" fill="#F48432"/>
<path fill-rule="evenodd" clip-rule="evenodd" d="M26.5 10.4167C26.5 9.86437 26.9477 9.41666 27.5 9.41666H36.6667C37.219 9.41666 37.6667 9.86437 37.6667 10.4167C37.6667 10.9689 37.219 11.4167 36.6667 11.4167H27.5C26.9477 11.4167 26.5 10.9689 26.5 10.4167Z" fill="#F48432"/>
<path fill-rule="evenodd" clip-rule="evenodd" d="M32.0833 4.83334C32.6355 4.83334 33.0833 5.28106 33.0833 5.83334V15C33.0833 15.5523 32.6355 16 32.0833 16C31.531 16 31.0833 15.5523 31.0833 15V5.83334C31.0833 5.28106 31.531 4.83334 32.0833 4.83334Z" fill="#F48432"/>
</svg>
