<svg width="40" height="40" viewBox="0 0 40 40" fill="none" xmlns="http://www.w3.org/2000/svg">
<path fill-rule="evenodd" clip-rule="evenodd" d="M20.0003 4.33337C15.9502 4.33337 12.667 7.61662 12.667 11.6667C12.667 15.7168 15.9502 19 20.0003 19C24.0504 19 27.3337 15.7168 27.3337 11.6667C27.3337 7.61662 24.0504 4.33337 20.0003 4.33337ZM10.667 11.6667C10.667 6.51205 14.8457 2.33337 20.0003 2.33337C25.155 2.33337 29.3337 6.51205 29.3337 11.6667C29.3337 16.8214 25.155 21 20.0003 21C14.8457 21 10.667 16.8214 10.667 11.6667Z" fill="#F48432"/>
<path fill-rule="evenodd" clip-rule="evenodd" d="M20.0003 26C12.4508 26 6.68359 30.9511 6.68359 36.6667C6.68359 37.219 6.23588 37.6667 5.68359 37.6667C5.13131 37.6667 4.68359 37.219 4.68359 36.6667C4.68359 29.4822 11.7498 24 20.0003 24C21.6902 24 23.3297 24.2288 24.8662 24.6527C25.3986 24.7995 25.7111 25.3502 25.5643 25.8826C25.4174 26.415 24.8667 26.7275 24.3343 26.5807C22.9708 26.2045 21.5103 26 20.0003 26Z" fill="#F48432"/>
<path fill-rule="evenodd" clip-rule="evenodd" d="M29.9997 24.3334C28.671 24.3334 27.4384 24.7992 26.4563 25.582L26.4546 25.5834L26.4546 25.5834C25.1543 26.6151 24.333 28.2128 24.333 30C24.333 31.0626 24.6303 32.0645 25.1508 32.9085L25.1592 32.9221L25.1591 32.9221C26.1355 34.5637 27.9318 35.6667 29.9997 35.6667C31.4333 35.6667 32.729 35.1433 33.7141 34.2567C33.7227 34.249 33.7315 34.2413 33.7404 34.2338C34.1677 33.8755 34.5432 33.4312 34.8359 32.9295L34.8483 32.9083L34.8485 32.9085C35.369 32.0645 35.6663 31.0626 35.6663 30C35.6663 26.869 33.1307 24.3334 29.9997 24.3334ZM25.2097 24.0181C26.5276 22.9676 28.1951 22.3334 29.9997 22.3334C34.2353 22.3334 37.6663 25.7644 37.6663 30C37.6663 31.4332 37.2661 32.7941 36.5573 33.9478C36.1539 34.6367 35.6364 35.2513 35.0391 35.7549C33.6924 36.9613 31.9266 37.6667 29.9997 37.6667C27.2037 37.6667 24.7688 36.1728 23.4443 33.9514C22.734 32.7969 22.333 31.4347 22.333 30C22.333 27.5873 23.445 25.4183 25.2114 24.0167L25.833 24.8L25.2097 24.0181Z" fill="#F48432"/>
<path fill-rule="evenodd" clip-rule="evenodd" d="M33.3336 27.6877C33.7085 28.0932 33.6839 28.7259 33.2784 29.1009L29.7284 32.3841C29.3341 32.7488 28.7221 32.7369 28.3423 32.3571L26.6923 30.7071C26.3018 30.3166 26.3018 29.6834 26.6923 29.2929C27.0828 28.9024 27.716 28.9024 28.1065 29.2929L29.0765 30.2628L31.9204 27.6326C32.3259 27.2576 32.9586 27.2823 33.3336 27.6877Z" fill="#F48432"/>
</svg>
